<?xml version="1.0" encoding="UTF-8"?>
<svg version="1.1" xmlns="http://www.w3.org/2000/svg" width="863" height="219">
<path d="M0 0 C6.27 0 12.54 0 19 0 C20.96266409 3.92532818 21.23673996 5.19073464 21.16357422 9.36352539 C21.14398148 10.9702285 21.14398148 10.9702285 21.12399292 12.60939026 C21.10112213 13.76051804 21.07825134 14.91164581 21.0546875 16.09765625 C21.02940395 18.53189545 21.00468138 20.96614053 20.98046875 23.40039062 C20.93072624 27.24115234 20.87466878 31.08161068 20.80810547 34.92211914 C20.74787959 38.62648514 20.7122151 42.33045839 20.6796875 46.03515625 C20.65276825 47.18830826 20.625849 48.34146027 20.59811401 49.52955627 C20.59135651 50.59753952 20.584599 51.66552277 20.57763672 52.76586914 C20.56272186 53.70644669 20.54780701 54.64702423 20.53244019 55.61610413 C20.79508321 58.13242193 20.79508321 58.13242193 22.81155396 59.80369568 C26.0234621 61.55947102 28.39678181 61.37928613 32 61 C34.91080119 59.97122608 34.91080119 59.97122608 37 58 C37.93990366 54.54829758 38.14035739 51.23961305 38.18945312 47.67480469 C38.21452942 46.11859406 38.21452942 46.11859406 38.2401123 44.53094482 C38.25368774 43.42245178 38.26726318 42.31395874 38.28125 41.171875 C38.29965942 40.02712708 38.31806885 38.88237915 38.33703613 37.70294189 C38.41569592 32.80791518 38.48372385 27.9127557 38.55224609 23.01757812 C38.60379808 19.44393745 38.66108875 15.87042145 38.71875 12.296875 C38.73232544 11.18028503 38.74590088 10.06369507 38.7598877 8.91326904 C38.78496399 7.37597137 38.78496399 7.37597137 38.81054688 5.80761719 C38.82307495 4.90114441 38.83560303 3.99467163 38.84851074 3.06072998 C39 1 39 1 40 0 C41.33043625 -0.0983721 42.66593344 -0.13078592 44 -0.1328125 C44.804375 -0.13410156 45.60875 -0.13539062 46.4375 -0.13671875 C47.283125 -0.13285156 48.12875 -0.12898438 49 -0.125 C50.2684375 -0.13080078 50.2684375 -0.13080078 51.5625 -0.13671875 C52.366875 -0.13542969 53.17125 -0.13414063 54 -0.1328125 C54.7425 -0.13168457 55.485 -0.13055664 56.25 -0.12939453 C58 0 58 0 59 1 C59.10738518 2.69704436 59.14624266 4.39847714 59.15771484 6.09887695 C59.16797699 7.18703201 59.17823914 8.27518707 59.18881226 9.39631653 C59.19611359 10.58166489 59.20341492 11.76701324 59.2109375 12.98828125 C59.23900691 15.47331387 59.26767138 17.95833983 59.296875 20.44335938 C59.33816542 24.38045054 59.37503289 28.31741744 59.40136719 32.25463867 C59.42892077 36.04111786 59.47479756 39.82702219 59.5234375 43.61328125 C59.52669037 44.79255692 59.52994324 45.97183258 59.53329468 47.18684387 C59.54986115 48.28445541 59.56642761 49.38206696 59.58349609 50.51293945 C59.59562637 51.96069511 59.59562637 51.96069511 59.60800171 53.43769836 C60.0656643 56.42921549 60.94173081 57.81258444 63 60 C64.92844751 60.68972172 64.92844751 60.68972172 67 60.75 C68.0209375 60.83507812 68.0209375 60.83507812 69.0625 60.921875 C70.70720282 60.98819366 72.35396065 61 74 61 C74 60.34 74 59.68 74 59 C74.48968262 58.63414795 74.97936523 58.2682959 75.48388672 57.89135742 C77.912111 54.86213785 77.34557069 51.44920935 77.2578125 47.73828125 C77.25119598 46.91482712 77.24457947 46.09137299 77.23776245 45.2429657 C77.21435505 42.5990987 77.17079899 39.95606603 77.125 37.3125 C77.07795978 33.87115338 77.03957243 30.42980198 77.0078125 26.98828125 C76.99985657 26.14838654 76.99190063 25.30849182 76.98370361 24.44314575 C76.94029318 16.62007438 77.13438203 8.78068027 78 1 C79 0 79 0 80.85766602 -0.11352539 C82.04380493 -0.10567017 82.04380493 -0.10567017 83.25390625 -0.09765625 C84.53491211 -0.09282227 84.53491211 -0.09282227 85.84179688 -0.08789062 C87.18854492 -0.07532227 87.18854492 -0.07532227 88.5625 -0.0625 C89.46419922 -0.05798828 90.36589844 -0.05347656 91.29492188 -0.04882812 C93.53001314 -0.03700225 95.76497437 -0.0205222 98 0 C98.88614945 3.05482552 99.13611715 5.80076228 99.16113281 8.97705078 C99.17074036 9.96553009 99.1803479 10.9540094 99.19024658 11.97244263 C99.19449646 13.03598969 99.19874634 14.09953674 99.203125 15.1953125 C99.20882507 16.29793427 99.21452515 17.40055603 99.22039795 18.53659058 C99.22984296 20.87171471 99.23637995 23.20685214 99.24023438 25.54199219 C99.24990661 29.09073619 99.28092174 32.63889269 99.3125 36.1875 C99.31903384 38.46093408 99.32428281 40.73437228 99.328125 43.0078125 C99.3404718 44.05921417 99.3528186 45.11061584 99.36553955 46.19387817 C99.33815861 55.38496065 97.85646186 63.86720377 91.94140625 71.17578125 C84.45412591 78.21111308 75.88520333 80.29798306 65.93359375 80.23046875 C61.66742912 79.89531068 55.17454104 79.17454104 52 76 C47.93852474 75.49231559 45.41876432 76.17657218 41.875 78 C34.07250848 81.68487415 25.37305798 80.81763083 17.375 78.0234375 C8.49284426 74.1959296 3.13871689 68.79493435 -1 60 C-1.93380647 55.6652732 -2.00388215 51.4937514 -1.97265625 47.0703125 C-1.98969101 45.87695282 -2.00672577 44.68359314 -2.02427673 43.45407104 C-2.05387154 40.95161489 -2.0672867 38.44891933 -2.06518555 35.94628906 C-2.06249236 32.11412941 -2.10796523 28.28486482 -2.16210938 24.453125 C-2.18507048 22.0130454 -2.20534753 19.57293874 -2.22265625 17.1328125 C-2.23289322 15.99006866 -2.24313019 14.84732483 -2.25367737 13.66995239 C-2.25125534 12.6046933 -2.24883331 11.5394342 -2.24633789 10.44189453 C-2.24797691 9.04271286 -2.24797691 9.04271286 -2.24964905 7.61526489 C-2 5 -2 5 0 0 Z " fill="#FEFEFE" transform="translate(729,59)"/>
<path d="M0 0 C5.28 0 10.56 0 16 0 C18.25004119 5.62510297 18.25004119 5.62510297 18.20927429 9.61871338 C18.20294479 10.96470612 18.20294479 10.96470612 18.19648743 12.33789062 C18.18151718 13.30952148 18.16654694 14.28115234 18.15112305 15.28222656 C18.14326782 16.31522888 18.1354126 17.3482312 18.12731934 18.41253662 C18.09877367 21.82207515 18.05551409 25.2312509 18.01171875 28.640625 C17.98808463 31.00762201 17.96521177 33.37462674 17.94306946 35.74163818 C17.89456232 40.69796741 17.83919706 45.65415611 17.77856445 50.61035156 C17.7008749 56.97844793 17.63657898 63.34659006 17.57690716 69.71487808 C17.53030155 74.59947243 17.47851378 79.4840002 17.42493629 84.36852264 C17.39944504 86.71777855 17.37515299 89.06704776 17.3520565 91.41632843 C17.31873365 94.6894182 17.27888934 97.96236092 17.23706055 101.23535156 C17.22816299 102.21507935 17.21926544 103.19480713 17.21009827 104.20422363 C17.19741913 105.09027283 17.18473999 105.97632202 17.17167664 106.88922119 C17.15810135 108.05061804 17.15810135 108.05061804 17.14425182 109.23547745 C17 111 17 111 16 112 C13.37742627 112.20743521 10.81360682 112.32445376 8.1875 112.375 C7.09985352 112.43107422 7.09985352 112.43107422 5.99023438 112.48828125 C3.85546875 112.5234375 3.85546875 112.5234375 0 112 C-2.51171875 109.4765625 -2.51171875 109.4765625 -4 107 C-4.82177734 107.39832031 -4.82177734 107.39832031 -5.66015625 107.8046875 C-18.00115792 113.30295491 -28.92568496 114.28705207 -41.4609375 109.5546875 C-45.97061804 107.57361371 -49.45563492 105.39565046 -53 102 C-53.64582031 101.41863281 -54.29164063 100.83726563 -54.95703125 100.23828125 C-58.35940331 97.04379343 -60.53826232 94.51809829 -62 90 C-62.66 89.67 -63.32 89.34 -64 89 C-64.33333333 87 -64.66666667 85 -65 83 C-65.66 82.67 -66.32 82.34 -67 82 C-69.20182622 68.34867746 -68.2806308 56.55748165 -60.5625 44.8125 C-51.27940054 34.04410463 -40.80224765 28.42564258 -26.75390625 26.1875 C-18.30210455 25.61205818 -10.59645478 28.60548875 -3 32 C-2.01179414 29.03538241 -1.90838526 27.22217401 -1.97265625 24.140625 C-1.98490234 23.18929687 -1.99714844 22.23796875 -2.00976562 21.2578125 C-2.04464929 19.26815151 -2.08364617 17.27855797 -2.12695312 15.2890625 C-2.13791016 14.33257812 -2.14886719 13.37609375 -2.16015625 12.390625 C-2.17699463 11.52469727 -2.19383301 10.65876953 -2.21118164 9.76660156 C-2 7 -2 7 0 0 Z M-43.49609375 52.27734375 C-48.50951472 58.01998958 -50.10796001 64.46679025 -50 72 C-49.07207163 80.05156309 -45.00930677 85.75226656 -38.84375 90.7421875 C-33.29958882 94.52443305 -26.48276424 94.68898944 -20 94 C-17.3885477 93.26252991 -15.43604766 92.28967229 -13 91 C-11.700625 90.4121875 -11.700625 90.4121875 -10.375 89.8125 C-5.01473756 85.7217734 -2.2779759 79.50605912 -1 73 C-0.38963603 65.30941392 -1.88878872 59.38241306 -6.6875 53.25 C-12.10271425 47.39354607 -18.22272922 45.5272726 -26 45 C-32.73263007 45 -38.63572259 47.68761971 -43.49609375 52.27734375 Z " fill="#FDFDFD" transform="translate(353,27)"/>
<path d="M0 0 C3.1080816 3.12288199 3.45679994 5.67999419 3.5 10 C3.36460957 15.54423804 3.36460957 15.54423804 0.75 18.8125 C-2 20 -2 20 -4.3125 19.75 C-4.869375 19.5025 -5.42625 19.255 -6 19 C-6 19.66 -6 20.32 -6 21 C-7.27875 21.185625 -8.5575 21.37125 -9.875 21.5625 C-15.78829444 22.85779307 -20.51016942 26.00013109 -25 30 C-25.33 30.99 -25.66 31.98 -26 33 C-27.2065625 34.11375 -27.2065625 34.11375 -28.4375 35.25 C-31.38732841 38.41566951 -31.96583872 40.86335487 -33 45 C-33.99 45.495 -33.99 45.495 -35 46 C-34.814375 46.61875 -34.62875 47.2375 -34.4375 47.875 C-34 50 -34 50 -35 52 C-36.15510902 62.73683305 -33.05127671 72.19381305 -26.8203125 80.9296875 C-21.08577778 87.4517978 -13.56352226 91.65500875 -5 93 C1.64788882 93.4204512 8.47723974 93.48244551 15 92 C15.33 91.34 15.66 90.68 16 90 C16.680625 89.7525 17.36125 89.505 18.0625 89.25 C26.21399243 85.78127982 30.98291677 80.33299361 34.6875 72.375 C36.10268796 68.94505867 36.10268796 68.94505867 37 65 C25.78 65 14.56 65 3 65 C1.875 53.75 1.875 53.75 2 48 C9.04736512 47.83168293 16.09488542 47.67180952 23.14257812 47.51782227 C25.54040877 47.46443256 27.93819709 47.40910558 30.3359375 47.35180664 C33.78115717 47.26981155 37.22646865 47.19477035 40.671875 47.12109375 C42.28144073 47.08054115 42.28144073 47.08054115 43.92352295 47.03916931 C44.92425842 47.01907303 45.9249939 46.99897675 46.95605469 46.97827148 C47.83541687 46.95828598 48.71477905 46.93830048 49.62078857 46.91770935 C51.93346732 46.99769881 53.82113595 47.22230453 56 48 C57.67868889 51.35737777 57.14241099 55.12427141 57.125 58.8125 C57.12886719 59.62009766 57.13273438 60.42769531 57.13671875 61.25976562 C57.13009448 65.30387952 57.0084017 69.05442826 56 73 C55.34 73 54.68 73 54 73 C53.67 75.31 53.34 77.62 53 80 C52.34 80 51.68 80 51 80 C50.814375 80.804375 50.62875 81.60875 50.4375 82.4375 C45.72634808 94.11296346 35.18320101 102.58316864 24.02734375 107.74609375 C9.15793354 113.90490753 -6.02404724 113.50246817 -21.0546875 107.8515625 C-31.47209644 103.17049303 -41.23361866 94.94203679 -47 85 C-47.6875 82.125 -47.6875 82.125 -48 80 C-48.66 79.67 -49.32 79.34 -50 79 C-50.88671875 77.00390625 -50.88671875 77.00390625 -51.6875 74.5625 C-51.95949219 73.75941406 -52.23148437 72.95632812 -52.51171875 72.12890625 C-53 70 -53 70 -52 68 C-52.66 68 -53.32 68 -54 68 C-53.979375 67.21625 -53.95875 66.4325 -53.9375 65.625 C-53.81315937 63.01885039 -53.81315937 63.01885039 -55 61 C-54.96215131 58.3767946 -54.85746941 55.80223493 -54.6875 53.1875 C-54.65205078 52.47529297 -54.61660156 51.76308594 -54.58007812 51.02929688 C-54.32789758 46.96053308 -53.67810081 43.70552056 -52 40 C-52 39.34 -52 38.68 -52 38 C-51.34 38 -50.68 38 -50 38 C-49.9175 36.96875 -49.835 35.9375 -49.75 34.875 C-48.46676817 28.24496887 -44.12102528 23.77697165 -39.625 18.9375 C-38.94050781 18.18243164 -38.94050781 18.18243164 -38.2421875 17.41210938 C-29.50809181 7.9297274 -29.50809181 7.9297274 -23 7 C-22.67 6.34 -22.34 5.68 -22 5 C-20.1796875 4.21875 -20.1796875 4.21875 -17.875 3.5 C-17.06160156 3.24605469 -16.24820313 2.99210937 -15.41015625 2.73046875 C-14.21712891 2.36888672 -14.21712891 2.36888672 -13 2 C-11.1746875 1.4121875 -11.1746875 1.4121875 -9.3125 0.8125 C-5.97441431 -0.00627574 -3.41006526 -0.4650089 0 0 Z " fill="#FDFDFD" transform="translate(527,27)"/>
<path d="M0 0 C0 0.66 0 1.32 0 2 C0.66 2.33 1.32 2.66 2 3 C1.88658509 5.48020497 1.75985314 7.95844969 1.625 10.4375 C1.57859375 11.49807617 1.57859375 11.49807617 1.53125 12.58007812 C1.42719371 14.39239188 1.22080108 16.19817988 1 18 C-1.70879335 19.35439668 -4.00933268 19.06501451 -7 19 C-7.33 19.66 -7.66 20.32 -8 21 C-9.85546875 21.7109375 -9.85546875 21.7109375 -12.1875 22.375 C-21.11782806 25.24848095 -27.76003301 31.24418471 -32.36328125 39.421875 C-36.96650455 49.93396312 -36.97594736 60.91214306 -33.03125 71.6328125 C-28.63186345 81.35307874 -22.26992372 86.97910357 -12.515625 91.08984375 C-2.04182737 94.87927674 8.5643745 93.15889204 19 90 C19 89.34 19 88.68 19 88 C20.5390625 86.9921875 20.5390625 86.9921875 22.625 85.875 C27.24378662 83.12180869 30.29828113 79.63590397 33 75 C33 74.34 33 73.68 33 73 C33.66 73 34.32 73 35 73 C35.66 70.69 36.32 68.38 37 66 C25.45 65.67 13.9 65.34 2 65 C2 49 2 49 4 47 C6.17666626 46.79745483 6.17666626 46.79745483 8.90869141 46.86474609 C9.92959869 46.88491791 10.95050598 46.90508972 12.00234985 46.9258728 C13.10759003 46.95806915 14.2128302 46.9902655 15.3515625 47.0234375 C16.4807309 47.04846344 17.60989929 47.07348938 18.77328491 47.09927368 C22.39082078 47.18164885 26.00782489 47.2781713 29.625 47.375 C32.07289473 47.4332216 34.52081147 47.49052524 36.96875 47.546875 C42.97946299 47.68725369 48.98979898 47.83925863 55 48 C58.59288566 54.70962719 57.29744088 62.70189505 56 70 C55.34 70 54.68 70 54 70 C53.95875 70.928125 53.9175 71.85625 53.875 72.8125 C52.11137046 84.63358445 42.46364707 94.45134766 33.6875 101.8125 C21.70200153 110.68135053 7.57981286 113.16521981 -7 112 C-21.42874493 109.31274169 -34.55899952 102.4767506 -43.78125 90.85546875 C-46.64600644 86.49406071 -48.87241538 81.75509349 -51 77 C-51.27650391 76.41968018 -51.55300781 75.83936035 -51.83789062 75.24145508 C-54.40325607 69.33671765 -54.38146596 63.80127389 -54.25 57.4375 C-54.24484375 56.43525391 -54.2396875 55.43300781 -54.234375 54.40039062 C-54.15666645 47.02293563 -54.02298616 40.29952821 -50.5625 33.625 C-50.13066406 32.77164063 -49.69882812 31.91828125 -49.25390625 31.0390625 C-48 29 -48 29 -46 28 C-45.62875 26.948125 -45.62875 26.948125 -45.25 25.875 C-40.46190991 14.86239279 -28.19524487 7.3730187 -17.53125 2.9296875 C-11.63110038 0.76265724 -6.28828286 -0.26201179 0 0 Z " fill="#FDFDFD" transform="translate(86,27)"/>
<path d="M0 0 C1.41637332 0.08817888 2.83308462 0.1710082 4.25 0.25 C14.16909117 1.34842285 23.64114548 7.8963315 30.01171875 15.35546875 C37.61652785 25.63870118 39.15958705 35.83234925 39.1328125 48.359375 C39.13376923 49.34496399 39.13472595 50.33055298 39.13571167 51.3460083 C39.13638996 53.42028874 39.13456025 55.49457134 39.13037109 57.56884766 C39.12499497 60.75297763 39.1303397 63.93696801 39.13671875 67.12109375 C39.13605835 69.13802115 39.13477799 71.15494845 39.1328125 73.171875 C39.13483673 74.12705017 39.13686096 75.08222534 39.13894653 76.06634521 C39.13421829 77.38847015 39.13421829 77.38847015 39.12939453 78.73730469 C39.12859894 79.5141864 39.12780334 80.29106812 39.12698364 81.0914917 C39 83 39 83 38 85 C35.37472811 85.05382106 32.75055287 85.09358313 30.125 85.125 C29.37863281 85.14175781 28.63226563 85.15851563 27.86328125 85.17578125 C25.90805539 85.1933959 23.95257979 85.10320189 22 85 C20 83 20 83 19 80 C18.28714844 80.26554687 17.57429688 80.53109375 16.83984375 80.8046875 C15.88207031 81.15789062 14.92429688 81.51109375 13.9375 81.875 C12.99777344 82.22304687 12.05804688 82.57109375 11.08984375 82.9296875 C10.07019531 83.28289062 9.05054688 83.63609375 8 84 C6.32744141 84.58007812 6.32744141 84.58007812 4.62109375 85.171875 C0.58597582 86.09468514 -2.83330905 85.96017376 -6.875 85.375 C-7.9266333 85.23167236 -7.9266333 85.23167236 -8.99951172 85.08544922 C-20.22188869 83.38430205 -30.30675106 77.47852466 -37.8125 68.9375 C-39.03383495 66.94479561 -39.45668855 65.2508617 -40 63 C-40.66 62.67 -41.32 62.34 -42 62 C-42.81433892 59.88502084 -43.52952026 57.73122022 -44.1875 55.5625 C-44.55230469 54.38816406 -44.91710937 53.21382812 -45.29296875 52.00390625 C-46 49 -46 49 -45 47 C-45.66 46.67 -46.32 46.34 -47 46 C-46.80547246 37.17552358 -44.3990091 30.08412975 -41 22 C-40.67 21.01 -40.34 20.02 -40 19 C-38.38036907 17.2331299 -36.75478886 15.62383446 -35 14 C-34.41992188 13.43796875 -33.83984375 12.8759375 -33.2421875 12.296875 C-24.83942871 4.47244373 -11.79452149 -3.07683169 0 0 Z M-22 25.625 C-26.7271824 31.71252266 -28.95809734 39.33522126 -28 47 C-25.9715625 55.2084104 -21.86646606 60.17295883 -15 65 C-8.95253488 68.0880673 -1.30327396 67.98746138 5.125 65.9375 C11.69236434 63.06593989 16.5910202 58.7111761 19.5 52.125 C21.88507437 45.12878185 21.94265458 38.7612969 19.046875 31.91796875 C15.88267585 26.12087255 11.48442553 21.47305454 5.12109375 19.3828125 C-4.66963959 16.67038922 -14.69953957 17.96804151 -22 25.625 Z " fill="#FDFDFD" transform="translate(233,54)"/>
<path d="M0 0 C0.71414063 0.00563965 1.42828125 0.0112793 2.1640625 0.01708984 C11.95383009 0.24304198 18.99634926 3.99565554 25.80078125 10.96484375 C29.1875 14.86672535 29.1875 14.86672535 29.1875 17.3125 C29.8475 17.6425 30.5075 17.9725 31.1875 18.3125 C31.78515625 20.203125 31.78515625 20.203125 32.25 22.5625 C32.41371094 23.37847656 32.57742188 24.19445312 32.74609375 25.03515625 C32.96458984 26.16244141 32.96458984 26.16244141 33.1875 27.3125 C33.496875 28.6428125 33.496875 28.6428125 33.8125 30 C34.70782126 35.52114776 34.04911798 40.03791574 32.1875 45.3125 C31.1975 45.8075 31.1975 45.8075 30.1875 46.3125 C29.960625 46.993125 29.73375 47.67375 29.5 48.375 C27.54731073 52.74530456 24.40919948 55.81347474 21.1875 59.3125 C20.35992187 60.23160156 19.53234375 61.15070313 18.6796875 62.09765625 C14.61053301 66.61016638 10.51043232 71.04118478 6.1875 75.3125 C3.93534857 77.53950505 1.68593793 79.76924642 -0.5625 82 C-1.15160156 82.58072266 -1.74070312 83.16144531 -2.34765625 83.75976562 C-5.46156764 86.74405316 -5.46156764 86.74405316 -7.8125 90.3125 C-6.55066895 90.30202637 -5.28883789 90.29155273 -3.98876953 90.28076172 C0.68144914 90.24463101 5.35165539 90.22162484 10.02197266 90.20263672 C12.04543127 90.19256329 14.06887528 90.17890405 16.09228516 90.16162109 C18.99645589 90.13743153 21.90043461 90.12603051 24.8046875 90.1171875 C25.71306366 90.10686493 26.62143982 90.09654236 27.55734253 90.08590698 C28.39806305 90.08575592 29.23878357 90.08560486 30.10498047 90.08544922 C30.84666473 90.081008 31.588349 90.07656677 32.35250854 90.07199097 C34.1875 90.3125 34.1875 90.3125 36.1875 92.3125 C36.33247985 94.89314129 36.37427545 97.36193884 36.3125 99.9375 C36.30347656 100.64390625 36.29445313 101.3503125 36.28515625 102.078125 C36.26157603 103.82306098 36.22570461 105.56782295 36.1875 107.3125 C35.5275 107.3125 34.8675 107.3125 34.1875 107.3125 C33.8575 107.9725 33.5275 108.6325 33.1875 109.3125 C24.72973786 109.20515162 16.27206926 109.09254994 7.81446934 108.97316074 C3.88765386 108.91789585 -0.03916901 108.8644703 -3.96606445 108.81518555 C-7.75270842 108.76759439 -11.53925916 108.71525376 -15.32579231 108.65955925 C-16.77351638 108.63911182 -18.22126603 108.62040276 -19.66903496 108.60342598 C-21.69014159 108.57943492 -23.7111661 108.54879925 -25.73217773 108.51782227 C-26.88467514 108.50227798 -28.03717255 108.4867337 -29.22459412 108.47071838 C-31.8125 108.3125 -31.8125 108.3125 -32.8125 107.3125 C-33.2994639 104.64622237 -33.65373163 102.0639342 -33.9375 99.375 C-34.05609375 98.65248047 -34.1746875 97.92996094 -34.296875 97.18554688 C-34.66160064 93.3593047 -34.35830699 91.118014 -32.17163086 87.89086914 C-29.81987814 85.24198146 -27.36047121 82.77306824 -24.8125 80.3125 C-23.94979492 79.43940186 -23.08708984 78.56630371 -22.19824219 77.66674805 C-19.52757805 74.9648063 -16.83065878 72.29186797 -14.125 69.625 C-6.96380069 62.6253573 -6.96380069 62.6253573 -0.29296875 55.16796875 C0.52558594 54.22566406 1.34414063 53.28335938 2.1875 52.3125 C2.8475 52.3125 3.5075 52.3125 4.1875 52.3125 C4.8475 50.9925 5.5075 49.6725 6.1875 48.3125 C6.8475 48.3125 7.5075 48.3125 8.1875 48.3125 C8.435 47.77625 8.6825 47.24 8.9375 46.6875 C10.1875 44.3125 10.1875 44.3125 12.3125 41.6875 C14.84375849 37.13123471 15.00963244 33.41968639 14.1875 28.3125 C12.02451163 23.90641257 9.79069521 21.1137503 5.1875 19.3125 C0.23846948 18.6307458 -4.28308032 18.67279016 -8.8125 20.9375 C-12.18665036 23.60870236 -12.99695394 25.14415348 -13.8125 29.3125 C-13.8125 29.9725 -13.8125 30.6325 -13.8125 31.3125 C-17.50344468 33.77312979 -19.48294195 33.58066777 -23.875 33.5625 C-25.12410156 33.56765625 -26.37320312 33.5728125 -27.66015625 33.578125 C-30.8125 33.3125 -30.8125 33.3125 -32.8125 31.3125 C-33.18326135 26.49260242 -32.56460338 22.80226491 -30.8125 18.3125 C-30.1525 18.3125 -29.4925 18.3125 -28.8125 18.3125 C-28.8125 16.9925 -28.8125 15.6725 -28.8125 14.3125 C-21.6296192 5.77327734 -11.10333607 -0.09079831 0 0 Z " fill="#FDFDFD" transform="translate(423.8125,30.6875)"/>
<path d="M0 0 C14.98868979 0.43493966 25.51016005 5.42215804 36 16 C41.53023393 21.87291936 43.98453665 28.24821787 46 36 C46.19980469 36.73992187 46.39960937 37.47984375 46.60546875 38.2421875 C48.39620514 47.63912105 44.24783048 59.17291723 39.328125 67.0859375 C38.67070313 68.03339844 38.67070313 68.03339844 38 69 C37.58234375 69.61101562 37.1646875 70.22203125 36.734375 70.8515625 C30.26575345 79.29051131 20.40044111 84.43782278 10 86 C-1.76263058 87.00985099 -12.27616533 84.87783428 -22 78 C-26.83492865 73.83195806 -30.9305527 70.1541679 -33 64 C-33.66 64 -34.32 64 -35 64 C-37.10209017 58.97326264 -38.37185805 54.60937248 -38.7890625 49.17578125 C-38.96051301 46.93277437 -38.96051301 46.93277437 -39.5625 44.515625 C-40.98758295 36.32139806 -36.64841571 27.12713767 -33 20 C-30.6875 17.1875 -30.6875 17.1875 -28 15 C-27.41347656 14.44957031 -26.82695313 13.89914063 -26.22265625 13.33203125 C-19.2080628 6.81748802 -12.49549226 2.82955127 -2.96875 1.359375 C-1.00398241 1.19352763 -1.00398241 1.19352763 0 0 Z M-12.3125 24.3125 C-18.24369218 30.24369218 -20.45897389 35.69299491 -21 44 C-20.4412609 52.11335741 -17.64029443 57.69761775 -11.6875 63.25 C-5.98389549 67.85629371 0.1511911 68.48625665 7.296875 68.30078125 C14.97004448 67.44697482 19.55516905 63.07129713 24.3671875 57.296875 C28.0671574 52.09213266 28.72956967 46.24187387 28 40 C26.50169172 32.70991183 23.34087077 26.95682501 17.11328125 22.71484375 C7.79194592 17.6055067 -3.75894099 17.54820588 -12.3125 24.3125 Z " fill="#FDFDFD" transform="translate(668,53)"/>
<path d="M0 0 C1.75570312 0.04060547 1.75570312 0.04060547 3.546875 0.08203125 C4.43890625 0.11683594 5.3309375 0.15164062 6.25 0.1875 C6.58 1.1775 6.91 2.1675 7.25 3.1875 C7.91 3.5175 8.57 3.8475 9.25 4.1875 C9.1428421 17.97369448 9.03003023 31.75983267 8.91066074 45.54592705 C8.85540403 51.9467786 8.80197965 58.34763469 8.75268555 64.74853516 C8.70508253 70.92121595 8.65274123 77.09383977 8.59705925 83.26645279 C8.57661726 85.62604485 8.55790728 87.98565256 8.54092598 90.34527206 C8.51692278 93.64023261 8.48686265 96.93508469 8.45532227 100.22998047 C8.4495668 101.2139682 8.44381134 102.19795593 8.43788147 103.21176147 C8.42319824 104.55373596 8.42319824 104.55373596 8.40821838 105.92282104 C8.40176583 106.70265791 8.39531328 107.48249477 8.3886652 108.28596306 C8.25 110.1875 8.25 110.1875 7.25 112.1875 C2.90155463 113.54638918 -2.24363827 113.86466348 -6.75 113.1875 C-8.8547287 111.94216156 -8.8547287 111.94216156 -10.75 110.1875 C-11.25336456 108.1556778 -11.25336456 108.1556778 -11.25793457 105.78479004 C-11.26921387 104.88468704 -11.28049316 103.98458405 -11.29211426 103.0572052 C-11.28401733 102.07217514 -11.27592041 101.08714508 -11.26757812 100.07226562 C-11.2745874 99.03301437 -11.28159668 97.99376312 -11.28881836 96.92301941 C-11.3064575 93.47965969 -11.2947541 90.03711842 -11.28125 86.59375 C-11.2839432 84.20625653 -11.28782417 81.81876412 -11.29284668 79.43127441 C-11.29874978 74.4242917 -11.29015233 69.41759414 -11.27148438 64.41064453 C-11.2486948 57.98408562 -11.26181348 51.55819484 -11.28577423 45.13166046 C-11.30021005 40.20065248 -11.29563632 35.2698036 -11.28526306 30.33879089 C-11.28258966 27.96884584 -11.28588696 25.59888647 -11.29518127 23.22895813 C-11.30531004 19.91982618 -11.28989617 16.61178483 -11.26757812 13.30273438 C-11.27567505 12.31770432 -11.28377197 11.33267426 -11.29211426 10.3177948 C-11.28083496 9.4176918 -11.26955566 8.51758881 -11.25793457 7.59020996 C-11.25642647 6.807817 -11.25491837 6.02542404 -11.25336456 5.2193222 C-10.75 3.1875 -10.75 3.1875 -8.92040253 1.43064117 C-5.87370116 -0.31441757 -3.47950535 -0.10438516 0 0 Z " fill="#FDFDFD" transform="translate(165.75,26.8125)"/>
<path d="M0 0 C1.916588 -0.02712153 3.8332873 -0.04645097 5.75 -0.0625 C7.35101562 -0.07990234 7.35101562 -0.07990234 8.984375 -0.09765625 C11.55099163 -0.01454043 13.60199817 0.10915353 16 1 C17.17417134 3.34834269 17.12329052 4.72357478 17.12025452 7.34060669 C17.12162918 8.25208466 17.12300385 9.16356262 17.12442017 10.10266113 C17.12082489 11.10535034 17.11722961 12.10803955 17.11352539 13.14111328 C17.11367142 14.19479095 17.11381744 15.24846863 17.1139679 16.33407593 C17.1132692 19.8295088 17.10547881 23.3248889 17.09765625 26.8203125 C17.09579192 29.23884044 17.09436809 31.65736876 17.09336853 34.07589722 C17.08954456 40.45128415 17.07971529 46.82664841 17.06866455 53.20202637 C17.05844785 59.70369154 17.05387035 66.20536037 17.04882812 72.70703125 C17.03809293 85.47136386 17.0212093 98.23568072 17 111 C12.92660394 112.43777251 10.05981191 113.2361417 5.75 112.6875 C4.89921875 112.58824219 4.0484375 112.48898438 3.171875 112.38671875 C1 112 1 112 -1 111 C-1.17733194 97.11814863 -1.34286152 83.23619962 -1.49477577 69.35404587 C-1.56565778 62.90831462 -1.64033704 56.46267358 -1.72363281 50.01708984 C-1.80384831 43.79913217 -1.87416965 37.58113475 -1.93757248 31.3629837 C-1.9635367 28.98824171 -1.9930926 26.61353623 -2.02626419 24.23888397 C-2.07204495 20.91806947 -2.10516283 17.59735568 -2.13525391 14.27636719 C-2.1517952 13.29021927 -2.16833649 12.30407135 -2.18537903 11.28804016 C-2.19104385 10.38222702 -2.19670868 9.47641388 -2.20254517 8.54315186 C-2.2117631 7.75778423 -2.22098103 6.97241661 -2.23047829 6.16324997 C-1.97102067 3.72800242 -1.21367036 2.10942605 0 0 Z " fill="#FEFEFE" transform="translate(599,27)"/>
<path d="M0 0 C8.68308401 -0.1180225 8.68308401 -0.1180225 11.70703125 2.44921875 C14.07377737 5.74550261 15.55359784 9.21710205 17 13 C17.66 13.33 18.32 13.66 19 14 C19.43828125 14.77085937 19.8765625 15.54171875 20.328125 16.3359375 C24.60181058 23.14587574 33.61718769 27.70885245 41.3125 29.5546875 C54.12719814 31.67805318 64.74827857 29.17907559 75.44140625 22.03515625 C80.36608153 18.11797179 84.82638239 13.34039758 86 7 C86.66 7 87.32 7 88 7 C88.185625 5.7934375 88.185625 5.7934375 88.375 4.5625 C88.58125 3.716875 88.7875 2.87125 89 2 C91.62329684 0.68835158 93.63698625 0.86737154 96.5625 0.875 C97.55378906 0.87242187 98.54507813 0.86984375 99.56640625 0.8671875 C102 1 102 1 103 2 C102.91036938 3.69141656 102.75422324 5.37959602 102.5625 7.0625 C102.46066406 7.98160156 102.35882813 8.90070313 102.25390625 9.84765625 C102.12822266 10.91306641 102.12822266 10.91306641 102 12 C101.34 12 100.68 12 100 12 C99.89558594 12.55300781 99.79117188 13.10601562 99.68359375 13.67578125 C96.6555508 23.97112726 87.98810721 32.34149065 79.078125 37.78515625 C65.16715795 45.11904691 50.2117178 47.73824286 34.9375 43.25 C32.94440883 42.53782847 30.96284382 41.79173532 29 41 C28.26523437 40.71125 27.53046875 40.4225 26.7734375 40.125 C13.6518395 34.26994432 4.88565601 22.93267163 -1.16796875 10.23828125 C-2.22234241 7.40186761 -2.39384547 4.99322559 -2 2 C-1.34 2 -0.68 2 0 2 C0 1.34 0 0.68 0 0 Z " fill="#FCFCFC" transform="translate(235,152)"/>
</svg>
