<?xml version="1.0" encoding="UTF-8"?>
<svg version="1.1" xmlns="http://www.w3.org/2000/svg" width="1020" height="244">
<path d="M0 0 C0.86496094 0.22816406 1.72992188 0.45632812 2.62109375 0.69140625 C10.82979976 2.87789567 17.47087354 6.59015236 24 12 C24.99 12.4640625 24.99 12.4640625 26 12.9375 C28.85877616 14.45622484 30.83266118 16.64688928 33 19 C34.03833984 20.11761719 34.03833984 20.11761719 35.09765625 21.2578125 C41 27.732694 41 27.732694 41 30 C41.99 30.33 42.98 30.66 44 31 C45.3515625 33.21484375 45.3515625 33.21484375 46.625 35.9375 C47.05039063 36.83339844 47.47578125 37.72929688 47.9140625 38.65234375 C48.27242187 39.42707031 48.63078125 40.20179687 49 41 C49.33 41.66 49.66 42.32 50 43 C40.76 43 31.52 43 22 43 C22 42.34 22 41.68 22 41 C21.443125 40.773125 20.88625 40.54625 20.3125 40.3125 C16.8239574 38.33251636 14.33986772 35.45120343 11.63671875 32.5234375 C2.94646435 24.43465655 -11.25992016 20.95686728 -22.9375 20.625 C-34.82452332 21.28920747 -49.17430989 25.09670045 -58.3125 33 C-59.1478125 33.99 -59.1478125 33.99 -60 35 C-64.65909091 39.88636364 -64.65909091 39.88636364 -68 41 C-68.0825 41.721875 -68.165 42.44375 -68.25 43.1875 C-69 46 -69 46 -70.87890625 48.2421875 C-77.40279438 56.72444352 -79.41777996 69.56743748 -79 80 C-77.85877933 88.10916154 -75.25144485 95.52299323 -72 103 C-71.32890094 104.66488687 -70.66109053 106.33111368 -70 108 C-69.34 108 -68.68 108 -68 108 C-67.773125 108.556875 -67.54625 109.11375 -67.3125 109.6875 C-61.91101053 119.20441002 -49.87200349 125.98356705 -39.671875 128.9765625 C-23.63151463 132.75699986 -7.38598644 131.99946252 6.92578125 123.20703125 C9 122 9 122 11 122 C11.495 120.515 11.495 120.515 12 119 C12.99 118.67 13.98 118.34 15 118 C16.33827304 116.33729713 17.67189785 114.67083819 19 113 C19.66 113 20.32 113 21 113 C21.37125 111.948125 21.37125 111.948125 21.75 110.875 C23 108 23 108 27 102 C28.65 97.38 30.3 92.76 32 88 C3.29 88 -25.42 88 -55 88 C-55 80.41 -55 72.82 -55 65 C-18.37 65 18.26 65 56 65 C60.98713571 79.96140712 55.42797242 99.27676072 49 113 C43.33228594 123.33385703 43.33228594 123.33385703 40 125 C39.62875 125.70125 39.2575 126.4025 38.875 127.125 C36.22495248 131.18840619 32.72086815 133.93359285 29 137 C28.175 137.70125 27.35 138.4025 26.5 139.125 C15.35915037 147.48063722 3.76803109 152.73907333 -10 155 C-10.763125 155.13148438 -11.52625 155.26296875 -12.3125 155.3984375 C-21.1788628 156.72124163 -29.75372954 156.01840406 -38.5 154.3125 C-39.41837646 154.13678467 -40.33675293 153.96106934 -41.28295898 153.7800293 C-47.03362423 152.60390801 -52.08759583 151.10187439 -57.16015625 148.05078125 C-59.09575203 146.94531359 -60.82455011 146.4409041 -63 146 C-63 145.34 -63 144.68 -63 144 C-64.051875 143.62875 -64.051875 143.62875 -65.125 143.25 C-73.11111111 139.77777778 -73.11111111 139.77777778 -75 136 C-75.73347656 135.5978125 -76.46695313 135.195625 -77.22265625 134.78125 C-80.75627892 132.51496036 -82.90742679 129.80801077 -85.4375 126.5 C-85.91977051 125.87270996 -86.40204102 125.24541992 -86.89892578 124.59912109 C-100.29755934 106.84717349 -104.56330412 86.9576776 -103 65 C-102.24748395 60.14553375 -100.68715398 55.60245682 -99 51 C-98.773125 50.18789062 -98.54625 49.37578125 -98.3125 48.5390625 C-96.45923727 41.93681403 -92.83738093 36.62360057 -89 31 C-88.57589844 30.33742187 -88.15179688 29.67484375 -87.71484375 28.9921875 C-84.96347224 24.83248685 -81.6768849 21.7647069 -77.85546875 18.57421875 C-75.86313516 16.94165378 -75.86313516 16.94165378 -73.75 14.625 C-71.83209385 12.84408715 -70.56386069 12.36626581 -68 12 C-68 11.34 -68 10.68 -68 10 C-47.38932777 -2.41569642 -23.4391431 -7.86135093 0 0 Z " fill="#000000" transform="translate(145,45)"/>
<path d="M0 0 C0 0.66 0 1.32 0 2 C0.7321875 2.09667969 1.464375 2.19335938 2.21875 2.29296875 C5.37723329 3.09589779 6.99596554 4.25372519 9.5 6.3125 C10.28117188 6.95058594 11.06234375 7.58867188 11.8671875 8.24609375 C12.57101562 8.82488281 13.27484375 9.40367188 14 10 C14.86625 10.61875 15.7325 11.2375 16.625 11.875 C19.69449799 14.62139293 22.00823575 17.76725509 24.44921875 21.07421875 C25.86515475 23.10597061 25.86515475 23.10597061 28 24 C29.05725253 25.97033426 30.04435012 27.97843296 31 30 C31.64263153 31.29326262 32.28861489 32.58486373 32.9375 33.875 C33.625 35.25 34.3125 36.625 35 38 C35.47336792 38.83362061 35.47336792 38.83362061 35.95629883 39.68408203 C38.89118988 45.06144637 40.02127231 50.0812721 40.8125 56.125 C41.01262695 57.39730469 41.01262695 57.39730469 41.21679688 58.6953125 C41.95702901 64.01548355 41.95037214 68.99664552 41.52612305 74.35498047 C41.42953903 75.60310516 41.33295502 76.85122986 41.23344421 78.13717651 C41.15640762 79.08190826 41.07937103 80.02664001 41 81 C26.54467189 81.02333012 12.08934669 81.04091332 -2.36599636 81.05181217 C-9.07741868 81.05697489 -15.78882932 81.06401713 -22.50024414 81.07543945 C-28.97113736 81.08626565 -35.44201842 81.09227626 -41.91292 81.09487724 C-44.38778945 81.09673198 -46.8626582 81.1003535 -49.33752251 81.10573006 C-52.79070373 81.11293693 -56.24383401 81.11399109 -59.69702148 81.11352539 C-60.73135818 81.11712067 -61.76569489 81.12071594 -62.83137512 81.12442017 C-63.76672089 81.1230455 -64.70206665 81.12167084 -65.66575623 81.12025452 C-66.89220179 81.12163721 -66.89220179 81.12163721 -68.14342403 81.12304783 C-70 81 -70 81 -71 80 C-71.09899523 78.45044441 -71.13079524 76.89646327 -71.1328125 75.34375 C-71.13474609 73.93416016 -71.13474609 73.93416016 -71.13671875 72.49609375 C-71.13285156 71.50738281 -71.12898437 70.51867187 -71.125 69.5 C-71.13080078 68.01693359 -71.13080078 68.01693359 -71.13671875 66.50390625 C-71.13542969 65.56417969 -71.13414062 64.62445313 -71.1328125 63.65625 C-71.13168457 62.78806641 -71.13055664 61.91988281 -71.12939453 61.02539062 C-71 59 -71 59 -70 58 C-67.32297564 57.87487856 -64.67047727 57.81393431 -61.99194336 57.79467773 C-61.15299026 57.78477814 -60.31403717 57.77487854 -59.44966125 57.76467896 C-56.6630846 57.73296815 -53.87649087 57.70826886 -51.08984375 57.68359375 C-49.16312708 57.66303248 -47.23641501 57.64203624 -45.30970764 57.62062073 C-40.228177 57.56531458 -35.14660508 57.51594312 -30.06500244 57.46777344 C-24.8837922 57.41762062 -19.7026422 57.36190217 -14.52148438 57.30664062 C-4.34770767 57.19895463 5.82612125 57.097533 16 57 C15.37015677 55.2323728 14.73704036 53.46591167 14.10253906 51.69995117 C13.57421478 50.22421883 13.57421478 50.22421883 13.03521729 48.71867371 C8.41177355 36.57664798 -0.43853039 27.56663352 -12 22 C-12 21.34 -12 20.68 -12 20 C-14.54093855 19.35118552 -17.08268273 18.70587101 -19.625 18.0625 C-20.33785156 17.88009766 -21.05070313 17.69769531 -21.78515625 17.50976562 C-32.43355085 14.82324405 -41.52475912 14.31297352 -52.25 16.8125 C-53.02601563 16.97814453 -53.80203125 17.14378906 -54.6015625 17.31445312 C-58.94260887 18.29600371 -62.23711974 19.53149397 -66 22 C-66.66 22 -67.32 22 -68 22 C-68 22.66 -68 23.32 -68 24 C-68.721875 24.226875 -69.44375 24.45375 -70.1875 24.6875 C-75.84788294 27.32901204 -80.27458462 33.02491997 -84 38 C-84.33 38.99 -84.66 39.98 -85 41 C-85.66 41 -86.32 41 -87 41 C-94.67300359 59.39369552 -96.57619544 76.17738386 -89 95 C-86.99753232 98.68563528 -84.71184821 101.81294475 -82 105 C-81.2575 106.051875 -80.515 107.10375 -79.75 108.1875 C-75.69415365 112.33552468 -70.96927225 115.0583008 -66 118 C-65.24332031 118.48984375 -64.48664062 118.9796875 -63.70703125 119.484375 C-51.90855388 126.79126445 -36.26108005 126.24451649 -23.00390625 123.84375 C-18.48188286 122.57358478 -14.50422812 120.49444535 -10.3984375 118.2421875 C-8 117 -8 117 -6 117 C-6 116.34 -6 115.68 -6 115 C-5.2575 114.566875 -4.515 114.13375 -3.75 113.6875 C-0.72937032 111.83393179 0.83372426 109.76386905 3 107 C3.66 107 4.32 107 5 107 C5 106.01 5 105.02 5 104 C14.57 104 24.14 104 34 104 C27.48717949 117.02564103 27.48717949 117.02564103 23 121 C22.67 121.99 22.34 122.98 22 124 C18.94011672 127.39987031 15.9359261 129.72130594 12 132 C11.505 132.495 11.01 132.99 10.5 133.5 C1.5313539 142.4686461 -13.8267587 147.19193855 -26 149 C-26.76957031 149.12890625 -27.53914062 149.2578125 -28.33203125 149.390625 C-42.93482638 151.57960415 -61.44259064 149.02278931 -74 141 C-75.98451771 140.28856912 -77.98202112 139.61008664 -80 139 C-80 138.34 -80 137.68 -80 137 C-80.71414063 136.75507813 -81.42828125 136.51015625 -82.1640625 136.2578125 C-90.93609244 132.36718765 -100.25752559 123.72342486 -104.4375 115 C-104.623125 114.34 -104.80875 113.68 -105 113 C-105.66 113 -106.32 113 -107 113 C-118.22264034 92.54074836 -121.48205437 72.88757701 -116 50 C-115.7076677 48.37511961 -115.41590232 46.750137 -115.125 45.125 C-114.25322718 41.12378629 -112.47059578 38.14977504 -110.12109375 34.82421875 C-108.93121004 32.88806651 -108.43585506 31.21845331 -108 29 C-107.34 29 -106.68 29 -106 29 C-105.34 27.35 -104.68 25.7 -104 24 C-103.34 24 -102.68 24 -102 24 C-101.88914062 23.40960938 -101.77828125 22.81921875 -101.6640625 22.2109375 C-99.85342964 16.18259516 -93.13851152 10.39664321 -88 7 C-87.01 7 -86.02 7 -85 7 C-85 6.34 -85 5.68 -85 5 C-59.25888842 -12.04537472 -27.50067158 -14.5099372 0 0 Z " fill="#000000" transform="translate(825,51)"/>
<path d="M0 0 C12.684375 -0.103125 25.36875 -0.20625 38.4375 -0.3125 C42.4070874 -0.35802002 46.3766748 -0.40354004 50.46655273 -0.45043945 C55.40441895 -0.47302246 55.40441895 -0.47302246 57.73353577 -0.47721863 C59.32202714 -0.48477667 60.91049429 -0.50210484 62.49879456 -0.52787781 C78.30863599 -0.77105495 93.64812885 1.18628639 106 12 C106.64195312 12.556875 107.28390625 13.11375 107.9453125 13.6875 C118.41400203 23.4764045 123.28336586 35.85436955 124.03125 50.1015625 C123.92947211 59.5414615 120.8890334 67.49459489 117 76 C116.34 76 115.68 76 115 76 C114.835 76.845625 114.67 77.69125 114.5 78.5625 C112.43670904 83.29087512 109.14969231 86.01715186 105 89 C103.515 89.495 103.515 89.495 102 90 C102 90.66 102 91.32 102 92 C100.35 92.66 98.7 93.32 97 94 C100.26998894 100.16809679 103.69385343 106.21908293 107.3125 112.1875 C110.53820082 117.50894876 113.65475652 122.87875426 116.6875 128.3125 C122.10354315 138.54555762 122.10354315 138.54555762 128.6640625 148.015625 C130 150 130 150 130 154 C130.66 154 131.32 154 132 154 C132 154.66 132 155.32 132 156 C127.83773496 156.22359275 123.67869784 156.38625784 119.51220703 156.49438477 C118.09752509 156.5394723 116.68325869 156.60076961 115.27001953 156.67895508 C103.57047554 157.30969159 103.57047554 157.30969159 99.80786133 154.171875 C98.22679055 151.84223659 97.0821007 149.59527563 96 147 C95.43152344 145.92492187 94.86304688 144.84984375 94.27734375 143.7421875 C93.83519531 142.79601562 93.39304687 141.84984375 92.9375 140.875 C90.64983496 136.16229055 88.12286385 132.19121201 85 128 C83.62481359 125.67937294 82.29927628 123.36099831 81 121 C80.55140625 120.21753906 80.1028125 119.43507813 79.640625 118.62890625 C78.95226562 117.42041016 78.95226562 117.42041016 78.25 116.1875 C77.82203125 115.43855469 77.3940625 114.68960938 76.953125 113.91796875 C76 112 76 112 76 110 C75.34 110 74.68 110 74 110 C73.67 108.02 73.34 106.04 73 104 C72.34 104 71.68 104 71 104 C70.67 102.68 70.34 101.36 70 100 C54.49 100 38.98 100 23 100 C23 118.48 23 136.96 23 156 C15.41 156 7.82 156 0 156 C0 104.52 0 53.04 0 0 Z M23 23 C23 40.82 23 58.64 23 77 C30.84723379 77.04596492 38.69399851 77.08577567 46.54125977 77.10986328 C49.20963257 77.11877541 51.87779002 77.13354451 54.54614258 77.15087891 C58.38625805 77.17519702 62.2262277 77.18649932 66.06640625 77.1953125 C67.25520889 77.20563507 68.44401154 77.21595764 69.6688385 77.22659302 C79.104288 77.22786492 85.44782758 76.21418301 92.9140625 70.13671875 C98.14941116 64.77391778 100.58960189 57.83038233 101.375 50.5 C101.24980808 43.058036 97.77601877 35.46928016 92.8125 30 C84.74509452 23.1203018 76.01665086 22.42914044 65.7734375 22.609375 C64.54460846 22.61503479 63.31577942 22.62069458 62.04971313 22.62652588 C58.15773148 22.64876383 54.26669941 22.69893921 50.375 22.75 C47.72266962 22.77008114 45.0703247 22.78832907 42.41796875 22.8046875 C35.94465991 22.84517098 29.47338215 22.92349253 23 23 Z " fill="#000000" transform="translate(887,43)"/>
<path d="M0 0 C12.684375 -0.103125 25.36875 -0.20625 38.4375 -0.3125 C42.4070874 -0.35802002 46.3766748 -0.40354004 50.46655273 -0.45043945 C55.40441895 -0.47302246 55.40441895 -0.47302246 57.73353577 -0.47721863 C59.32202714 -0.48477667 60.91049429 -0.50210484 62.49879456 -0.52787781 C78.97145191 -0.78124997 94.37658242 1.42853388 107 13 C109.56639902 15.52231965 111.83902368 18.12437009 114 21 C114.46019531 21.60199219 114.92039062 22.20398438 115.39453125 22.82421875 C122.74031426 33.41013565 124.66142012 46.42353582 123 59 C121.43689498 66.53523232 118.96878385 73.04567225 114 79 C113.505 80.485 113.505 80.485 113 82 C111.2578125 83.7890625 111.2578125 83.7890625 109.125 85.625 C108.42632812 86.23601562 107.72765625 86.84703125 107.0078125 87.4765625 C105 89 105 89 102 90 C102 90.66 102 91.32 102 92 C100.35 92.66 98.7 93.32 97 94 C98.59970573 97.24555682 100.28301559 100.43999391 102 103.625 C102.515625 104.58664063 103.03125 105.54828125 103.5625 106.5390625 C104.90188988 109.07117041 104.90188988 109.07117041 107 111 C107.71247732 112.6476038 108.37400383 114.31763529 109 116 C109.37125 116.928125 109.7425 117.85625 110.125 118.8125 C110.41375 119.534375 110.7025 120.25625 111 121 C111.66 121 112.32 121 113 121 C113.27714844 121.73476562 113.55429687 122.46953125 113.83984375 123.2265625 C114.91265753 125.7912015 116.10750785 128.01219223 117.5625 130.375 C118.08457031 131.23222656 118.60664063 132.08945313 119.14453125 132.97265625 C119.75683594 133.97167969 120.36914062 134.97070312 121 136 C122.58928692 138.6005887 124.17095125 141.20568499 125.75 143.8125 C126.13873291 144.44655762 126.52746582 145.08061523 126.92797852 145.73388672 C128.95370359 149.07989126 130.60017772 152.35446727 132 156 C127.83773496 156.22359275 123.67869784 156.38625784 119.51220703 156.49438477 C118.09752509 156.5394723 116.68325869 156.60076961 115.27001953 156.67895508 C103.53794452 157.31144538 103.53794452 157.31144538 99.796875 154.12133789 C98.24398869 151.80706874 97.08930925 149.56083708 96 147 C95.20335937 145.69482422 95.20335937 145.69482422 94.390625 144.36328125 C92.14367181 140.32338253 90.26326758 136.47885778 89 132 C88.34 132 87.68 132 87 132 C86.63648438 131.32195312 86.27296875 130.64390625 85.8984375 129.9453125 C82.91794844 124.4275866 79.89012941 118.96136128 76.56533813 113.64230347 C75 111 75 111 73.76889038 108.37234497 C71.28629969 103.18031374 71.28629969 103.18031374 66.6897583 100.08660889 C63.86826353 99.74538418 61.1919147 99.7174347 58.3515625 99.8046875 C57.00421021 99.7903064 57.00421021 99.7903064 55.62963867 99.77563477 C52.29466144 99.75452553 48.95958758 99.81982419 45.625 99.875 C38.15875 99.91625 30.6925 99.9575 23 100 C23 118.48 23 136.96 23 156 C15.41 156 7.82 156 0 156 C0 104.52 0 53.04 0 0 Z M23 23 C23 40.82 23 58.64 23 77 C30.86554352 77.04593763 38.73062058 77.08575647 46.59619141 77.10986328 C49.27139966 77.11878335 51.94639389 77.13355637 54.62158203 77.15087891 C58.46910308 77.17516701 62.31647872 77.18649245 66.1640625 77.1953125 C67.95500839 77.21079636 67.95500839 77.21079636 69.78213501 77.22659302 C71.46319839 77.22681961 71.46319839 77.22681961 73.17822266 77.22705078 C74.15973297 77.231492 75.14124329 77.23593323 76.15249634 77.24050903 C82.43941659 76.70949616 88.23412981 74.09181285 93 70 C98.26724704 63.05048243 101.74962276 55.84554853 101 47 C98.90413032 38.24936162 94.68781849 30.93624317 87 26 C79.93770063 22.66404471 73.7011977 22.6058789 65.96875 22.70703125 C64.73709106 22.71127609 63.50543213 22.71552094 62.2364502 22.71989441 C58.32407256 22.73661251 54.41222051 22.77425338 50.5 22.8125 C47.83854921 22.82925548 45.17710335 22.84124245 42.515625 22.85351562 C36.01005399 22.88393444 29.50561149 22.94267248 23 23 Z " fill="#000000" transform="translate(360,43)"/>
<path d="M0 0 C7.26 0 14.52 0 22 0 C22 51.48 22 102.96 22 156 C4 156 4 156 1 154 C-0.01866229 152.34467377 -1.01810813 150.67739862 -2 149 C-2.556875 148.46375 -3.11375 147.9275 -3.6875 147.375 C-5 146 -5 146 -5 143 C-5.99 142.67 -6.98 142.34 -8 142 C-9.4296875 140.3984375 -9.4296875 140.3984375 -10.875 138.375 C-11.39449219 137.65828125 -11.91398438 136.9415625 -12.44921875 136.203125 C-13.43640627 134.80067221 -14.41873138 133.39477482 -15.39453125 131.984375 C-17.44766573 129.03183116 -18.97169572 127.01886952 -22 125 C-22.33 124.01 -22.66 123.02 -23 122 C-24.31973665 120.65320724 -25.65637112 119.32295767 -27 118 C-28.91224683 115.71186579 -30.73580601 113.35670642 -32.5625 111 C-33.28469727 110.07574219 -33.28469727 110.07574219 -34.02148438 109.1328125 C-34.9459294 107.94769178 -35.86747297 106.7603002 -36.78564453 105.5703125 C-37.79299465 104.26768364 -38.81461767 102.97610688 -39.83984375 101.6875 C-41 100 -41 100 -41 98 C-42.485 97.505 -42.485 97.505 -44 97 C-44.33 96.01 -44.66 95.02 -45 94 C-46.1237462 92.8762538 -47.25208976 91.75675408 -48.40234375 90.66015625 C-51.2140423 87.7384646 -53.63879877 84.49741325 -56.1328125 81.3046875 C-57.895024 79.04766698 -57.895024 79.04766698 -59.6484375 77.3515625 C-61.51813791 75.48186209 -62.64321864 73.26130226 -64 71 C-64.556875 70.46375 -65.11375 69.9275 -65.6875 69.375 C-67 68 -67 68 -67 65 C-67.55558594 64.80277344 -68.11117187 64.60554688 -68.68359375 64.40234375 C-71.94139096 62.43008541 -73.85542184 59.59020092 -76.0625 56.5625 C-79.19289994 52.24208492 -79.19289994 52.24208492 -82.74609375 48.27734375 C-84 47 -84 47 -85 44 C-85.33 80.96 -85.66 117.92 -86 156 C-93.26 156 -100.52 156 -108 156 C-108 104.85 -108 53.7 -108 1 C-102.06 1 -96.12 1 -90 1 C-84.37375178 6.62624822 -84.37375178 6.62624822 -82.1328125 9.453125 C-81.64264648 10.06841064 -81.15248047 10.68369629 -80.64746094 11.31762695 C-80.14504883 11.95531006 -79.64263672 12.59299316 -79.125 13.25 C-78.60196289 13.9102417 -78.07892578 14.5704834 -77.54003906 15.25073242 C-76.5015188 16.56301228 -75.46436902 17.87637809 -74.42871094 19.19091797 C-73.18154457 20.77012214 -71.92369701 22.34087914 -70.6640625 23.91015625 C-70.03242187 24.70292969 -69.40078125 25.49570313 -68.75 26.3125 C-68.20859375 26.98925781 -67.6671875 27.66601562 -67.109375 28.36328125 C-66 30 -66 30 -66 32 C-65.01 32.33 -64.02 32.66 -63 33 C-61.68139648 34.47460938 -61.68139648 34.47460938 -60.37109375 36.34375 C-59.89349609 37.01277344 -59.41589844 37.68179688 -58.92382812 38.37109375 C-58.43333984 39.07363281 -57.94285156 39.77617188 -57.4375 40.5 C-56.46076845 41.88805396 -55.48046402 43.27360272 -54.49609375 44.65625 C-54.06482178 45.27306641 -53.6335498 45.88988281 -53.18920898 46.52539062 C-52.04844763 48.14889761 -52.04844763 48.14889761 -50 49 C-49.71125 49.598125 -49.4225 50.19625 -49.125 50.8125 C-48.1023275 53.08050311 -48.1023275 53.08050311 -46.23046875 54.74609375 C-43.61239531 57.3916776 -41.41378015 60.27846189 -39.1875 63.25 C-35.73012607 67.82006986 -32.17926121 72.20917263 -28.27734375 76.4140625 C-27 78 -27 78 -26 81 C-25.319375 81.680625 -24.63875 82.36125 -23.9375 83.0625 C-23.298125 83.701875 -22.65875 84.34125 -22 85 C-22 85.66 -22 86.32 -22 87 C-21.34 87 -20.68 87 -20 87 C-18.2734375 88.8984375 -18.2734375 88.8984375 -16.375 91.375 C-15.74335937 92.18710938 -15.11171875 92.99921875 -14.4609375 93.8359375 C-13 96 -13 96 -13 98 C-11.515 98.495 -11.515 98.495 -10 99 C-8.94228261 100.63064764 -7.94726954 102.30280873 -7 104 C-6.443125 104.721875 -5.88625 105.44375 -5.3125 106.1875 C-4 108 -4 108 -4 110 C-3.34 110 -2.68 110 -2 110 C-1.99576806 109.43916497 -1.99153612 108.87832994 -1.98717594 108.30049992 C-1.88400153 94.67238704 -1.7753207 81.04432775 -1.66066074 67.4163065 C-1.60538055 60.82597632 -1.55195255 54.23564176 -1.50268555 47.64526367 C-1.45511699 41.29104033 -1.40277719 34.93687292 -1.34705925 28.58271599 C-1.32660156 26.15251995 -1.30789427 23.72230855 -1.29092598 21.29208565 C-1.2669573 17.90112857 -1.2368928 14.51027834 -1.20532227 11.11938477 C-1.1995668 10.10374954 -1.19381134 9.08811432 -1.18788147 8.04170227 C-1.17809265 7.12318481 -1.16830383 6.20466736 -1.15821838 5.25831604 C-1.15176583 4.45543435 -1.14531328 3.65255266 -1.1386652 2.82534122 C-1 1 -1 1 0 0 Z " fill="#000000" transform="translate(614,43)"/>
<path d="M0 0 C6.6 0 13.2 0 20 0 C21.093125 2.330625 22.18625 4.66125 23.3125 7.0625 C23.65063721 7.78187744 23.98877441 8.50125488 24.3371582 9.24243164 C26.31042822 13.46069125 28.18471508 17.7106574 30 22 C34.90119407 33.47532904 39.82264795 44.84985695 45.515625 55.95703125 C46.31226563 57.52517578 46.31226563 57.52517578 47.125 59.125 C47.62257813 60.09695312 48.12015625 61.06890625 48.6328125 62.0703125 C50.0015002 65.0032147 50.99685396 67.92584279 52 71 C54.43884345 76.75699781 57.13071499 82.4026183 60.0078125 87.953125 C61.13268131 90.2737205 62.14024803 92.63738215 63.14794922 95.01074219 C64.72460797 98.69172085 66.36798819 102.34331189 68 106 C70.89943042 112.49646816 73.74430011 119.01117267 76.5 125.5703125 C76.995 126.74335938 77.49 127.91640625 78 129.125 C78.7425 130.89230469 78.7425 130.89230469 79.5 132.6953125 C80.82972787 135.62486922 82.31595249 138.26633839 84 141 C85.03485877 143.31808364 86.0355414 145.65175298 87 148 C87.5878125 149.36125 87.5878125 149.36125 88.1875 150.75 C89 153 89 153 89 156 C81.08 156 73.16 156 65 156 C62.49126729 150.98253458 60.17591606 146.13516191 58 141 C56.86225184 138.55819709 55.71713653 136.1212211 54.5625 133.6875 C52.17029019 128.60757578 49.9334888 123.50891136 47.8984375 118.2734375 C45.56267837 112.36295134 42.84186869 106.68373738 40 101 C20.2 101 0.4 101 -20 101 C-21.98 105.62 -23.96 110.24 -26 115 C-28.93487261 121.73294305 -32.09280552 128.28354806 -35.4453125 134.81640625 C-38.3195742 140.47104673 -40.96640068 146.11491823 -43.23828125 152.0390625 C-44 154 -44 154 -45 156 C-52.92 156 -60.84 156 -69 156 C-68.09973219 150.59839315 -67.63511581 149.25672555 -65 145 C-64.47580144 143.67599333 -63.97735135 142.34160854 -63.5 141 C-62.6596572 138.65749001 -61.85915298 136.76729622 -60.5625 134.625 C-58.6466132 131.40631017 -57.38406092 128.07324431 -56.0234375 124.58984375 C-53.73289974 118.79355925 -51.08111003 113.16673513 -48.42626953 107.5300293 C-48.12060059 106.88074463 -47.81493164 106.23145996 -47.5 105.5625 C-47.19433105 104.91385986 -46.88866211 104.26521973 -46.57373047 103.59692383 C-44.86291889 99.93873831 -43.26839706 96.26921967 -41.8125 92.5 C-40.47956724 89.05139099 -38.90013004 85.99787265 -37 82.8359375 C-35.37435218 79.85134971 -34.21986444 76.69170486 -32.9921875 73.52734375 C-30.61262057 67.46600593 -27.80935657 61.58867525 -25.0625 55.6875 C-22.60882091 50.4021761 -20.33847829 45.06670858 -18.17578125 39.65625 C-16.97738832 36.94891713 -15.5252425 34.53400077 -14 32 C-13.31733062 30.43219655 -12.67092053 28.8480831 -12.0625 27.25 C-9.35171468 20.30296842 -6.35530382 13.54662062 -2.9296875 6.921875 C-1.83865194 4.66645695 -0.93049999 2.32624997 0 0 Z M9 35 C6.48817604 39.83834943 4.07205315 44.65380002 2.125 49.75 C0.02013777 55.19686797 -2.63224086 60.33078082 -5.31640625 65.5078125 C-7.11282666 69.23403023 -8.54752727 73.12673938 -10 77 C3.2 77 16.4 77 30 77 C25.74096184 65.96083182 25.74096184 65.96083182 22 60 C21.31733062 58.43219655 20.67092053 56.8480831 20.0625 55.25 C17.36709827 48.33660319 14.3870217 41.60469231 11 35 C10.34 35 9.68 35 9 35 Z " fill="#000000" transform="translate(259,43)"/>
<path d="M0 0 C7.59 0 15.18 0 23 0 C23 51.48 23 102.96 23 156 C15.41 156 7.82 156 0 156 C0 104.52 0 53.04 0 0 Z " fill="#000000" transform="translate(664,43)"/>
</svg>
