<?xml version="1.0" encoding="UTF-8"?>
<svg version="1.1" xmlns="http://www.w3.org/2000/svg" width="690" height="136">
<path d="M0 0 C1.90845703 0.16628906 1.90845703 0.16628906 3.85546875 0.3359375 C4.83128906 0.43132813 5.80710937 0.52671875 6.8125 0.625 C6.98004132 6.83618613 7.14060887 13.04749826 7.29467773 19.2590332 C7.34809143 21.37268949 7.4034203 23.48629828 7.46069336 25.59985352 C7.54262166 28.63547522 7.61769135 31.67120038 7.69140625 34.70703125 C7.71844131 35.65399368 7.74547638 36.60095612 7.77333069 37.57661438 C7.79342697 38.45730087 7.81352325 39.33798737 7.83422852 40.24536133 C7.85421402 41.02035477 7.87419952 41.79534821 7.89479065 42.59382629 C7.8125 44.625 7.8125 44.625 6.8125 47.625 C7.53302048 47.46044815 8.25354095 47.2958963 8.99589539 47.12635803 C11.72187927 46.64113057 14.11597096 46.53903421 16.87817383 46.60327148 C17.85881302 46.62336777 18.83945221 46.64346405 19.84980774 46.66416931 C20.8958165 46.69120438 21.94182526 46.71823944 23.01953125 46.74609375 C24.64032845 46.78151024 24.64032845 46.78151024 26.29386902 46.81764221 C29.73771952 46.89408298 33.181334 46.97819179 36.625 47.0625 C38.96287916 47.11574027 41.30076976 47.16848054 43.63867188 47.22070312 C49.36347384 47.34873384 55.08789265 47.48713432 60.8125 47.625 C60.8125 32.115 60.8125 16.605 60.8125 0.625 C64.97986972 -0.20847394 67.47312611 -0.40893739 71.5625 0 C72.52671875 0.09023437 73.4909375 0.18046875 74.484375 0.2734375 C76.8125 0.625 76.8125 0.625 77.8125 1.625 C77.94860784 4.77969924 78.01990601 7.91369804 78.04956055 11.07006836 C78.06267273 12.061866 78.07578491 13.05366364 78.08929443 14.07551575 C78.13126079 17.37191831 78.16566359 20.66834549 78.19921875 23.96484375 C78.22485635 26.24549012 78.25064041 28.52613484 78.27656555 30.80677795 C78.32962057 35.59438098 78.3785366 40.3820069 78.42504883 45.16967773 C78.4854481 51.31830317 78.5596545 57.46667672 78.63742352 63.61510372 C78.69489892 68.32721291 78.74325622 73.03938309 78.789011 77.75161934 C78.81248685 80.01915643 78.83926085 82.28666177 78.86932945 84.55412102 C78.91029759 87.71958406 78.93859493 90.88491356 78.96362305 94.05053711 C78.98607841 95.46805771 78.98607841 95.46805771 79.00898743 96.91421509 C79.01320709 97.77376297 79.01742676 98.63331085 79.02177429 99.51890564 C79.0296934 100.26794631 79.03761251 101.01698698 79.0457716 101.78872585 C78.8125 103.625 78.8125 103.625 76.8125 105.625 C71.5325 105.625 66.2525 105.625 60.8125 105.625 C60.8125 88.465 60.8125 71.305 60.8125 53.625 C42.9925 53.625 25.1725 53.625 6.8125 53.625 C6.8125 70.785 6.8125 87.945 6.8125 105.625 C1.5325 105.625 -3.7475 105.625 -9.1875 105.625 C-11.1875 103.625 -11.1875 103.625 -11.42635822 101.79151917 C-11.42103675 101.04377731 -11.41571527 100.29603546 -11.41023254 99.52563477 C-11.4089032 98.66753204 -11.40757385 97.80942932 -11.40620422 96.92532349 C-11.39437607 95.9818808 -11.38254791 95.03843811 -11.37036133 94.06640625 C-11.36571869 93.07446259 -11.36107605 92.08251892 -11.35629272 91.06051636 C-11.33785546 87.76934571 -11.30433732 84.47853554 -11.26953125 81.1875 C-11.25098377 78.90828817 -11.23289773 76.62907254 -11.21525574 74.34985352 C-11.17569974 69.56810458 -11.12831377 64.78650772 -11.07592773 60.00488281 C-11.00959624 53.86433621 -10.96599355 47.72386682 -10.92866993 41.58308411 C-10.89699027 36.87508246 -10.85160187 32.16728808 -10.80219078 27.45944214 C-10.78041737 25.19477309 -10.76335943 22.9300538 -10.75101662 20.66531372 C-10.73207005 17.50440124 -10.69432176 14.34426198 -10.65161133 11.18359375 C-10.64990433 10.24015106 -10.64819733 9.29670837 -10.6464386 8.32467651 C-10.6232959 7.03752243 -10.6232959 7.03752243 -10.59968567 5.72436523 C-10.59247907 4.97662338 -10.58527246 4.22888153 -10.57784748 3.45848083 C-9.46181428 -1.78358061 -4.02304165 -0.36908639 0 0 Z " fill="#000000" transform="translate(20.1875,14.375)"/>
<path d="M0 0 C1.12535156 0.00580078 1.12535156 0.00580078 2.2734375 0.01171875 C3.02367187 0.00785156 3.77390625 0.00398437 4.546875 0 C10.14682697 0.01010822 10.14682697 0.01010822 11.2734375 1.13671875 C11.37718699 3.58900471 11.41705524 6.01403825 11.4152832 8.46704102 C11.42049484 9.61841301 11.42049484 9.61841301 11.42581177 10.79304504 C11.43318356 12.46655612 11.43852132 14.14007706 11.44210243 15.81360054 C11.44925494 18.46654848 11.46491491 21.11931004 11.48344421 23.77220154 C11.53595198 31.31758979 11.58383971 38.8628805 11.59936523 46.40844727 C11.60947689 51.01987273 11.63888937 55.63083624 11.68068504 60.24207878 C11.69296269 61.99660679 11.69812223 63.75120019 11.69588661 65.50576973 C11.69351968 67.97122079 11.71580634 70.4353615 11.7434082 72.90063477 C11.73680679 73.6183606 11.73020538 74.33608643 11.72340393 75.07556152 C11.83201086 81.02249255 13.66001794 86.14754711 17.61438465 90.67046452 C21.15363874 93.89633542 24.67312425 95.09513839 29.2734375 96.13671875 C30.2634375 96.46671875 31.2534375 96.79671875 32.2734375 97.13671875 C43.81391869 97.95022808 53.76638633 96.00946317 63.2734375 89.13671875 C72.44680635 79.57960339 71.59069376 66.49356483 71.6875 54.06640625 C71.70624618 52.53369139 71.72582206 51.00098647 71.7461853 49.46829224 C71.79714869 45.46701975 71.836964 41.46571393 71.87432861 37.46429443 C71.91459489 33.36804199 71.96558308 29.27192387 72.015625 25.17578125 C72.11195946 17.16285276 72.19649773 9.14985684 72.2734375 1.13671875 C73.92958407 0.75453108 75.59800774 0.42276773 77.2734375 0.13671875 C79.16432771 2.02760896 78.41118318 5.32860834 78.41870117 7.84033203 C78.42205978 8.54124466 78.4254184 9.24215729 78.42887878 9.96430969 C78.43842204 12.29523465 78.44033409 14.62608793 78.44140625 16.95703125 C78.44461836 18.57551097 78.44798239 20.19399039 78.45149231 21.81246948 C78.45749331 25.21385368 78.4593314 28.61521244 78.45874023 32.01660156 C78.45863898 36.36432122 78.47224853 40.71187621 78.48951244 45.05955696 C78.50066573 48.40712219 78.50265836 51.75464817 78.50213051 55.10223007 C78.50330725 56.7041162 78.50771181 58.30600344 78.51546288 59.90787125 C78.52532257 62.15760813 78.52236056 64.40699508 78.51635742 66.65673828 C78.51778244 67.93501495 78.51920746 69.21329163 78.52067566 70.53030396 C77.90959496 79.44401892 74.02535834 89.05998999 67.2734375 95.13671875 C53.99360408 104.66558168 39.29337436 106.66031458 23.3359375 104.44921875 C16.91220279 103.29580898 11.16940789 100.87562698 5.2734375 98.13671875 C5.2734375 97.47671875 5.2734375 96.81671875 5.2734375 96.13671875 C4.67789063 95.89050781 4.08234375 95.64429687 3.46875 95.390625 C0.89892556 93.92280713 -0.20381497 92.5199592 -1.8515625 90.07421875 C-2.34914063 89.36136719 -2.84671875 88.64851563 -3.359375 87.9140625 C-7.81693907 78.85883948 -7.00358151 68.71225767 -6.95703125 58.88671875 C-6.9558375 57.22045935 -6.9553867 55.55419926 -6.9556427 53.88793945 C-6.95408637 50.41499555 -6.94585668 46.94215597 -6.93237305 43.46923828 C-6.91527811 39.00909668 -6.91156217 34.54906825 -6.91231823 30.08889771 C-6.91204714 26.65752068 -6.90657747 23.22616857 -6.89931679 19.7947998 C-6.89612864 18.14888701 -6.89416237 16.50297138 -6.89342308 14.85705566 C-6.89126705 12.56871654 -6.88254212 10.28050041 -6.87182617 7.9921875 C-6.86610847 6.03768677 -6.86610847 6.03768677 -6.86027527 4.04370117 C-6.6274596 -1.01782783 -4.55046178 0.00821383 0 0 Z " fill="#000000" transform="translate(557.7265625,14.86328125)"/>
<path d="M0 0 C0.06058594 0.62648438 0.12117187 1.25296875 0.18359375 1.8984375 C0.26738281 2.71570313 0.35117188 3.53296875 0.4375 4.375 C0.55931641 5.59316406 0.55931641 5.59316406 0.68359375 6.8359375 C0.89090114 9.04272805 0.89090114 9.04272805 2 11 C2.12375 12.670625 2.12375 12.670625 2.25 14.375 C3.83588596 27.84283157 12.86121237 42.41211119 23.31640625 50.875 C35.55854364 59.76443936 46.97920178 63.49792018 62 65 C62 43.55 62 22.1 62 0 C63.32 -0.33 64.64 -0.66 66 -1 C67 0 67 0 67.12304783 1.76287174 C67.12212604 2.53625606 67.12120424 3.30964037 67.12025452 4.10646057 C67.12231651 5.43375183 67.12231651 5.43375183 67.12442017 6.78785706 C67.11902725 8.25520546 67.11902725 8.25520546 67.11352539 9.75219727 C67.11367142 10.7764682 67.11381744 11.80073914 67.1139679 12.85604858 C67.11326828 16.25952229 67.10547363 19.66294204 67.09765625 23.06640625 C67.09579224 25.41910268 67.09436826 27.7717995 67.09336853 30.12449646 C67.08954199 36.33056705 67.07971055 42.5366144 67.06866455 48.74267578 C67.05845334 55.06998378 67.05387154 61.39729552 67.04882812 67.72460938 C67.0380884 80.14974982 67.02101036 92.57487298 67 105 C65.35 105 63.7 105 62 105 C62 96.42 62 87.84 62 79 C58.04 79 54.08 79 50 79 C46.75985692 78.14496224 44.04632701 77.27650765 41 76 C40.05253906 75.62488281 39.10507812 75.24976562 38.12890625 74.86328125 C31.58603288 72.22112729 25.25928419 69.25427386 19 66 C19 65.34 19 64.68 19 64 C18.18208984 63.67322266 18.18208984 63.67322266 17.34765625 63.33984375 C14.22302189 61.55656657 11.91513785 59.12707251 9.4375 56.5625 C8.95603516 56.07201172 8.47457031 55.58152344 7.97851562 55.07617188 C6.64883309 53.72088335 5.32422778 52.36061877 4 51 C3.01 50.01 2.02 49.02 1 48 C0.67 66.81 0.34 85.62 0 105 C-3.3 105 -6.6 105 -10 105 C-10 70.35 -10 35.7 -10 0 C-6.7169902 -1.6415049 -3.57454967 -0.51888624 0 0 Z M0 45 C1 47 1 47 1 47 Z " fill="#000000" transform="translate(251,15)"/>
<path d="M0 0 C1.32 0 2.64 0 4 0 C4 0.66 4 1.32 4 2 C4.66 2.33 5.32 2.66 6 3 C8.32982221 6.35494399 9.2134027 9.05047819 10 13 C10.53022805 14.45879326 11.10474213 15.90211325 11.71826172 17.32788086 C12.24418411 18.55957253 12.24418411 18.55957253 12.7807312 19.81614685 C13.15988678 20.69021683 13.53904236 21.5642868 13.9296875 22.46484375 C14.32068634 23.37577286 14.71168518 24.28670197 15.11453247 25.22523499 C15.94111429 27.14844636 16.77001524 29.07066242 17.60107422 30.99194336 C18.86807546 33.92148917 20.12801511 36.85399024 21.38671875 39.78710938 C22.19229501 41.65903209 22.99827146 43.53078265 23.8046875 45.40234375 C24.17979462 46.2743895 24.55490173 47.14643524 24.94137573 48.04490662 C26.84109456 52.43217381 28.81663671 56.74403558 31 61 C38 75.97794118 38 75.97794118 38 81 C38.66 81.33 39.32 81.66 40 82 C41.60492912 84.99507976 42.82411725 88.1752121 44.125 91.3125 C44.49753906 92.18068359 44.87007813 93.04886719 45.25390625 93.94335938 C45.60582031 94.78318359 45.95773437 95.62300781 46.3203125 96.48828125 C46.64273926 97.25696533 46.96516602 98.02564941 47.29736328 98.81762695 C48 101 48 101 48 105 C42.39 105 36.78 105 31 105 C26.75638149 96.95945967 23.12837047 88.76121637 19.625 80.375 C19.17205566 79.29541016 18.71911133 78.21582031 18.25244141 77.10351562 C17.83140137 76.08708984 17.41036133 75.07066406 16.9765625 74.0234375 C16.40542725 72.64551025 16.40542725 72.64551025 15.82275391 71.23974609 C15 69 15 69 15 67 C2.79 67.33 -9.42 67.66 -22 68 C-23.381875 71.526875 -24.76375 75.05375 -26.1875 78.6875 C-26.63504639 79.82936768 -27.08259277 80.97123535 -27.54370117 82.14770508 C-30.11117693 88.70605846 -32.64635894 95.27469079 -35.125 101.8671875 C-36 104 -36 104 -37 105 C-39.33297433 105.04092937 -41.66705225 105.04241723 -44 105 C-40.98689389 95.64351259 -37.65051196 86.4764912 -33.4609375 77.58203125 C-28.62378371 67.17691462 -24.32886336 56.53615591 -19.9375 45.9375 C-19.0438542 43.78570993 -18.14997556 41.63401654 -17.25585938 39.48242188 C-12.79998828 28.76286635 -12.79998828 28.76286635 -8.36499023 18.03466797 C-7.93259033 16.98811035 -7.50019043 15.94155273 -7.0546875 14.86328125 C-6.7129248 14.03223877 -6.37116211 13.20119629 -6.01904297 12.3449707 C-4.19257611 8.14199652 -2.11332995 4.06478783 0 0 Z M-5 23 C-6.50680222 26.73244587 -7.94777349 30.4864855 -9.375 34.25 C-10.86247584 38.13493691 -12.3936272 41.96761635 -14.125 45.75 C-17.73157926 53.59230108 -17.73157926 53.59230108 -19 62 C-8.77 62 1.46 62 12 62 C11.14850325 56.89101948 9.87270716 52.86011031 7.83984375 48.1953125 C7.53051407 47.4713327 7.22118439 46.74735291 6.90248108 46.00143433 C5.92031138 43.70658969 4.92907087 41.41579591 3.9375 39.125 C3.26697361 37.56275933 2.59704535 36.00026178 1.92773438 34.4375 C0.29206294 30.6219927 -1.35175095 26.81008983 -3 23 C-3.66 23 -4.32 23 -5 23 Z " fill="#000000" transform="translate(389,15)"/>
<path d="M0 0 C1.65 0 3.3 0 5 0 C10.49186748 10.36589986 14.93843733 20.99046387 19.1496582 31.93212891 C19.9743012 34.03408565 19.9743012 34.03408565 21.10620117 36.07958984 C22 38 22 38 22 41 C22.66 41.33 23.32 41.66 24 42 C24.63385922 44.04243528 25.01826504 46.09132519 25.4375 48.1875 C25.7159375 49.0846875 25.7159375 49.0846875 26 50 C26.66 50.33 27.32 50.66 28 51 C28.8515625 52.7421875 28.8515625 52.7421875 29.625 54.875 C29.88539063 55.57367188 30.14578125 56.27234375 30.4140625 56.9921875 C31 59 31 59 31 62 C31.66 62.33 32.32 62.66 33 63 C33.89453125 64.86328125 33.89453125 64.86328125 34.8125 67.3125 C35.163125 68.22386719 35.51375 69.13523437 35.875 70.07421875 C36.24625 71.03972656 36.6175 72.00523438 37 73 C39.21004919 78.44071137 41.47963222 83.85303513 43.875 89.21484375 C44.19557373 89.93526855 44.51614746 90.65569336 44.84643555 91.39794922 C45.48100244 92.8197511 46.12034706 94.2394321 46.76489258 95.65673828 C48.08253878 98.61092813 49 100.72706455 49 104 C43.06 104 37.12 104 31 104 C28.86048239 98.91100455 26.72313261 93.82121119 24.59130859 88.72900391 C23.86504579 86.99604661 23.13751082 85.26362191 22.40869141 83.53173828 C21.36287935 81.0459782 20.3216188 78.55835479 19.28125 76.0703125 C18.95314331 75.29317902 18.62503662 74.51604553 18.2869873 73.71536255 C16 68.22774341 16 68.22774341 16 66 C14.99445068 66.16298584 13.98890137 66.32597168 12.95288086 66.49389648 C9.1619715 66.97926213 5.57246647 67.11404492 1.75390625 67.09765625 C1.09792953 67.0962413 0.44195282 67.09482635 -0.23390198 67.09336853 C-2.30181702 67.08783031 -4.36961842 67.07529002 -6.4375 67.0625 C-7.85090988 67.05747699 -9.26432148 67.0529155 -10.67773438 67.04882812 C-14.11852568 67.03788126 -17.55925172 67.02066038 -21 67 C-21.26699707 67.73895508 -21.53399414 68.47791016 -21.80908203 69.23925781 C-22.16341309 70.21733398 -22.51774414 71.19541016 -22.8828125 72.203125 C-23.23230957 73.16895508 -23.58180664 74.13478516 -23.94189453 75.12988281 C-25.18512694 78.50215788 -26.50498727 81.83749849 -27.85546875 85.16796875 C-28.76431479 87.41681986 -29.66103916 89.66936082 -30.55078125 91.92578125 C-30.82100098 92.60866211 -31.0912207 93.29154297 -31.36962891 93.99511719 C-31.90892011 95.35831657 -32.4463975 96.72223511 -32.98193359 98.08691406 C-34.88750034 102.88750034 -34.88750034 102.88750034 -36 104 C-38.33297433 104.04092937 -40.66705225 104.04241723 -43 104 C-40.49792909 96.03651224 -37.34504969 88.38027965 -34.125 80.6875 C-33.60257506 79.43306324 -33.08043813 78.1785065 -32.55859375 76.92382812 C-31.52902477 74.44990998 -30.49762223 71.97677052 -29.46435547 69.50439453 C-28.14580702 66.34893531 -26.83009309 63.1923168 -25.515625 60.03515625 C-10.14461883 23.14535652 -10.14461883 23.14535652 -4.3671875 10.09375 C-2.88506589 6.73992053 -1.43924123 3.37242325 0 0 Z M-4 22 C-4.433125 23.175625 -4.86625 24.35125 -5.3125 25.5625 C-6.49387249 28.71648981 -7.77205372 31.80798417 -9.12109375 34.89453125 C-10.29115565 37.69747955 -11.35911215 40.53557511 -12.4375 43.375 C-14.23511186 48.09781662 -16.1537776 52.71891749 -18.30078125 57.29296875 C-19.12634836 59.00101191 -19.12634836 59.00101191 -19 61 C-8.44 61 2.12 61 13 61 C12.29026627 57.45133137 11.70441799 54.97889882 10.328125 51.77734375 C9.99578857 50.99681641 9.66345215 50.21628906 9.32104492 49.41210938 C8.9676001 48.59548828 8.61415527 47.77886719 8.25 46.9375 C7.5217229 45.23845801 6.79385819 43.5392392 6.06640625 41.83984375 C5.53490967 40.60210205 5.53490967 40.60210205 4.99267578 39.33935547 C4.12660199 37.29835227 3.28602367 35.25077589 2.46484375 33.19140625 C1.83255859 31.61166016 1.83255859 31.61166016 1.1875 30 C0.65189453 28.63875 0.65189453 28.63875 0.10546875 27.25 C-1.00129031 24.99737378 -2.11970332 23.63785155 -4 22 Z " fill="#000000" transform="translate(167,16)"/>
<path d="M0 0 C0 0.66 0 1.32 0 2 C0.66 2 1.32 2 2 2 C3.38232443 3.62626404 4.71937515 5.2925002 6 7 C5.1875 9.4375 5.1875 9.4375 4 12 C3.01 12.33 2.02 12.66 1 13 C0.62875 12.278125 0.2575 11.55625 -0.125 10.8125 C-3.07345105 6.38982343 -6.31376381 3.68098 -11.25 1.6875 C-17.43953918 0.55275115 -22.68786313 -0.07349212 -28.5 2.625 C-32.47516997 6.40141147 -32.84494804 9.60453238 -33.4375 14.9375 C-33.33134725 19.5374524 -31.2589016 22.83289845 -28 26 C-26.515 26.495 -26.515 26.495 -25 27 C-24.43539063 27.58265625 -23.87078125 28.1653125 -23.2890625 28.765625 C-20.29328425 31.68983176 -16.96892206 33.63633319 -13.375 35.75 C-12.3540625 36.36681641 -12.3540625 36.36681641 -11.3125 36.99609375 C-7.89338055 39.22807633 -7.89338055 39.22807633 -4 40 C-2.66666667 41.33333333 -1.33333333 42.66666667 0 44 C0.99 44.33 1.98 44.66 3 45 C3 45.66 3 46.32 3 47 C3.59296875 47.24878906 4.1859375 47.49757812 4.796875 47.75390625 C7.31778882 49.17974226 8.53817911 50.61616713 10.25 52.9375 C10.77078125 53.62714844 11.2915625 54.31679687 11.828125 55.02734375 C13 57 13 57 13 60 C13.99 60.495 13.99 60.495 15 61 C15.18451025 75.78132118 15.18451025 75.78132118 14 82 C13.34 82 12.68 82 12 82 C11.71125 82.7425 11.4225 83.485 11.125 84.25 C10.75375 85.1575 10.3825 86.065 10 87 C9.60361328 87.99386719 9.60361328 87.99386719 9.19921875 89.0078125 C6.37100482 93.70614835 -0.93176 96.35624649 -6 98 C-16.91151851 100.42478189 -26.57287066 98.50842136 -36.36328125 93.1640625 C-41.84560045 89.66983708 -45.74338617 86.74696558 -49 81 C-49 80.01 -49 79.02 -49 78 C-46.525 77.01 -46.525 77.01 -44 76 C-42.09933747 77.71964705 -40.9138526 79.15998803 -39.6875 81.4375 C-37.57444975 84.64620594 -35.27766877 86.03339874 -32 88 C-31.13375 88.556875 -30.2675 89.11375 -29.375 89.6875 C-23.97020104 92.67436258 -18.03526325 92.59267454 -12 92 C-7.29819846 90.6354639 -4.61447472 88.77203233 -1.5625 84.9375 C0.92802939 80.25530475 1.51014095 76.24144816 1 71 C-1.87103576 61.62128319 -13.07631593 56.55078919 -21.0625 51.9375 C-37.96971433 42.13826915 -37.96971433 42.13826915 -42 36 C-42 35.34 -42 34.68 -42 34 C-42.66 34 -43.32 34 -44 34 C-47.102419 24.93813208 -48.37058822 16.58938173 -44.25 7.625 C-39.81720517 -0.13239095 -33.60291535 -3.08935589 -25.6875 -6.375 C-16.38523234 -7.95165554 -8.15837241 -4.13441697 0 0 Z " fill="#010101" transform="translate(506,21)"/>
<path d="M0 0 C0 34.65 0 69.3 0 105 C-5.61 105 -11.22 105 -17 105 C-17 70.35 -17 35.7 -17 0 C-11.93157925 -2.53421037 -5.65411589 -0.37694106 0 0 Z " fill="#000000" transform="translate(683,15)"/>
</svg>
