<?xml version="1.0" encoding="UTF-8"?>
<svg version="1.1" xmlns="http://www.w3.org/2000/svg" width="1023" height="503">
<path d="M0 0 C6.33829438 6.06221622 10.06322903 13.91711694 10.30078125 22.69140625 C10.50414635 32.44163281 10.29731307 40.31352223 6.0625 49.3125 C10.3525 48.9825 14.6425 48.6525 19.0625 48.3125 C18.96812746 42.8170256 18.86185998 37.32194908 18.74511719 31.8269043 C18.70710839 29.96205751 18.67220951 28.09714439 18.640625 26.23217773 C18.44944374 11.65945534 18.44944374 11.65945534 16.0625 -2.6875 C10.50180418 -4.94183614 4.9839349 -5.28711828 -0.9375 -5.6875 C-0.9375 -7.0075 -0.9375 -8.3275 -0.9375 -9.6875 C12.56400604 -10.03195422 26.0658972 -10.3482833 39.56878662 -10.63354492 C41.73425963 -10.68039805 43.89959917 -10.73072359 46.06494141 -10.78320312 C73.80744739 -11.4178755 73.80744739 -11.4178755 84.0625 -1.6875 C90.20156059 4.45156059 92.18766358 10.77461183 92.4375 19.3125 C92.17277633 28.77035475 89.1061227 35.69121691 82.875 42.8125 C79.20146379 46.07786552 75.20695914 48.68496708 71.0625 51.3125 C72.29613281 51.64121094 72.29613281 51.64121094 73.5546875 51.9765625 C86.1882613 55.56531441 95.6205852 60.43140554 102.6015625 71.82421875 C107.75656509 82.14862337 108.04326161 95.48419997 104.5 106.4375 C99.31854758 118.20523524 89.90321506 126.64245574 78.0625 131.3125 C67.85189809 134.5560203 58.0745125 134.99519252 47.48754883 133.8059082 C42.27624153 133.27970128 37.13249131 133.18368831 31.8984375 133.21484375 C30.52131088 133.21696617 30.52131088 133.21696617 29.11636353 133.21913147 C26.22337392 133.2246678 23.33046567 133.23720781 20.4375 133.25 C18.45963655 133.25502325 16.48177186 133.2595847 14.50390625 133.26367188 C9.69007347 133.27461627 4.87630046 133.29183582 0.0625 133.3125 C-0.2675 131.9925 -0.5975 130.6725 -0.9375 129.3125 C0.18269531 129.16554688 1.30289063 129.01859375 2.45703125 128.8671875 C3.92990373 128.64203502 5.40254927 128.41539435 6.875 128.1875 C7.61298828 128.0946875 8.35097656 128.001875 9.11132812 127.90625 C11.57973554 127.56116477 11.57973554 127.56116477 15.0625 126.3125 C17.67293095 122.20986691 18.43409571 119.03370008 18.40307617 114.21533203 C18.40284958 113.03456085 18.40262299 111.85378967 18.40238953 110.63723755 C18.38690567 109.37765228 18.37142181 108.11806702 18.35546875 106.8203125 C18.35122391 105.51923553 18.34697906 104.21815857 18.34260559 102.87765503 C18.33120479 99.43504237 18.30177974 95.99281533 18.26849365 92.550354 C18.23768917 89.03101822 18.2240782 85.51161953 18.20898438 81.9921875 C18.17690462 75.09880091 18.12576684 68.20566902 18.0625 61.3125 C17.17658676 61.59494064 16.29067352 61.87738129 15.37791443 62.16838074 C-14.50970784 71.686411 -14.50970784 71.686411 -25.9375 73.3125 C-26.78183594 73.45171875 -27.62617188 73.5909375 -28.49609375 73.734375 C-38.52849581 75.04907355 -48.87454207 73.89973891 -58.9375 73.3125 C-58.98732449 78.68358035 -59.02341866 84.05452305 -59.04736328 89.42578125 C-59.05735643 91.24904731 -59.07095551 93.07229762 -59.08837891 94.89550781 C-59.85215141 110.35002354 -59.85215141 110.35002354 -55.5 124.8125 C-48.45717274 128.93513059 -38.91197836 128.72636813 -30.9375 129.3125 C-31.2675 130.6325 -31.5975 131.9525 -31.9375 133.3125 C-32.88665283 133.30726318 -33.83580566 133.30202637 -34.8137207 133.29663086 C-54.88431443 133.19580722 -74.88531069 133.34736646 -94.9375 134.3125 C-94.9375 132.6625 -94.9375 131.0125 -94.9375 129.3125 C-93.97328125 129.21453125 -93.0090625 129.1165625 -92.015625 129.015625 C-90.12070312 128.79132813 -90.12070312 128.79132813 -88.1875 128.5625 C-86.30804688 128.35367188 -86.30804688 128.35367188 -84.390625 128.140625 C-80.54443904 127.21823651 -79.19082455 126.52840979 -76.9375 123.3125 C-75.57293637 117.68724757 -75.81071998 111.97636155 -75.83984375 106.2265625 C-75.8412587 105.16964203 -75.84267365 104.11272156 -75.84413147 103.02377319 C-75.8497106 99.66165284 -75.86225931 96.29960009 -75.875 92.9375 C-75.88001769 90.65234471 -75.88458013 88.36718838 -75.88867188 86.08203125 C-75.89967321 80.4921646 -75.91639056 74.90233713 -75.9375 69.3125 C-76.88367188 69.00094971 -77.82984375 68.68939941 -78.8046875 68.3684082 C-85.3190606 66.17275175 -93.69332803 62.80084393 -96.9375 56.3125 C-97.54965595 51.37152696 -97.79388082 47.57030933 -94.9375 43.375 C-90.09243968 40.04402103 -85.6042561 38.47635759 -79.7902832 37.77636719 C-77.88315552 37.54675293 -77.88315552 37.54675293 -75.9375 37.3125 C-76.03116362 32.40087107 -76.13728596 27.48972759 -76.25488281 22.57861328 C-76.29312857 20.90844059 -76.32798915 19.23818677 -76.359375 17.56787109 C-76.40512161 15.16474443 -76.46309925 12.76217416 -76.5234375 10.359375 C-76.53498871 9.61443787 -76.54653992 8.86950073 -76.55844116 8.10198975 C-76.66373319 4.39035239 -76.79655354 1.42475701 -78.9375 -1.6875 C-82.21620356 -3.95852861 -85.79772148 -4.26793101 -89.6875 -4.8125 C-90.85796875 -4.98007813 -92.0284375 -5.14765625 -93.234375 -5.3203125 C-94.57242187 -5.50207031 -94.57242187 -5.50207031 -95.9375 -5.6875 C-95.9375 -7.0075 -95.9375 -8.3275 -95.9375 -9.6875 C-94.98721924 -9.68226318 -94.03693848 -9.67702637 -93.05786133 -9.67163086 C-68.60736907 -9.53152918 -68.60736907 -9.53152918 -44.1796875 -10.46875 C-28.58378117 -11.36799607 -12.56476368 -10.26329707 0 0 Z M-57.75 -1.75 C-60.17647045 2.46439604 -60.06855779 6.33022352 -60.03515625 11.04296875 C-60.0337413 11.79338943 -60.03232635 12.54381012 -60.03086853 13.31697083 C-60.0252756 15.7113546 -60.01272444 18.10564453 -60 20.5 C-59.99498408 22.12434761 -59.99042134 23.74869668 -59.98632812 25.37304688 C-59.97530848 29.35290069 -59.95804873 33.33268444 -59.9375 37.3125 C-58.88473877 37.4971582 -57.83197754 37.68181641 -56.74731445 37.87207031 C-42.08024998 40.4965456 -42.08024998 40.4965456 -35.125 43.0625 C-34.42487793 43.31346436 -33.72475586 43.56442871 -33.00341797 43.82299805 C-27.5677456 45.8649669 -22.80162418 48.55484017 -18.0390625 51.89453125 C-15.90145102 53.47366803 -15.90145102 53.47366803 -12.9375 54.3125 C-7.46844342 40.01664048 -5.52655717 26.55608437 -11.93359375 12.05859375 C-16.59116233 3.82323892 -23.90634756 -2.20804162 -32.8984375 -5.0703125 C-40.44201445 -6.60229856 -51.98250701 -7.91525113 -57.75 -1.75 Z M36.0625 -0.6875 C35.11912624 2.14262127 34.94077171 3.85549918 34.94897461 6.78393555 C34.94905014 7.68464279 34.94912567 8.58535004 34.94920349 9.51335144 C34.95436478 10.48218765 34.95952606 11.45102386 34.96484375 12.44921875 C34.9662587 13.44379593 34.96767365 14.43837311 34.96913147 15.46308899 C34.97473239 18.64208982 34.98728504 21.82102043 35 25 C35.00501488 27.15429586 35.00957781 29.30859282 35.01367188 31.46289062 C35.02470212 36.74611774 35.04144114 42.02930385 35.0625 47.3125 C37.79029585 47.63600609 40.51817011 47.95882479 43.24609375 48.28125 C44.01449585 48.37245117 44.78289795 48.46365234 45.57458496 48.55761719 C47.0716124 48.73435238 48.56887258 48.9091291 50.06637573 49.08178711 C51.67783551 49.26804031 53.28841195 49.46192682 54.89868164 49.65820312 C60.24935117 50.0290358 63.32649505 48.50179107 67.2734375 45.14453125 C73.73838249 38.52431466 75.98563201 31.03897675 76.375 21.9375 C76.10185135 13.24226788 73.94803486 6.19860852 67.83203125 -0.09765625 C62.04012863 -5.30141865 56.68733608 -5.91083966 49.125 -6.0625 C48.07022461 -6.11857422 48.07022461 -6.11857422 46.99414062 -6.17578125 C41.5711843 -6.26726505 39.34085886 -4.93008205 36.0625 -0.6875 Z M-59.9375 45.3125 C-59.9375 51.5825 -59.9375 57.8525 -59.9375 64.3125 C-46.60400151 64.64037291 -34.15681861 64.42215931 -21.9375 58.3125 C-30.41981502 48.68558344 -47.67135539 46.20135106 -59.9375 45.3125 Z M-85.9375 48.3125 C-88.09681527 50.1397323 -88.09681527 50.1397323 -88.5625 52.625 C-87.79119391 55.94161619 -86.98415122 56.26910842 -84.1875 58.0625 C-81.31205843 59.74516581 -79.25628477 60.48280381 -75.9375 61.3125 C-75.9375 56.0325 -75.9375 50.7525 -75.9375 45.3125 C-79.84204958 45.3125 -82.43124314 46.65499676 -85.9375 48.3125 Z M35.0625 58.3125 C34.89727602 84.09771381 34.89727602 84.09771381 35.4375 109.875 C35.46835693 110.88876709 35.49921387 111.90253418 35.53100586 112.94702148 C35.5697583 113.87329346 35.60851074 114.79956543 35.6484375 115.75390625 C35.6798584 116.54482666 35.7112793 117.33574707 35.74365234 118.15063477 C36.28128429 121.79591112 37.36745592 123.79121694 40.3125 126 C48.70543334 130.00571818 61.10434483 129.51230483 69.9765625 127.12109375 C77.93002435 124.03801023 83.31261889 118.93937683 87.0625 111.3125 C90.95005466 100.94568758 89.94620709 88.50378811 86.0625 78.3125 C81.06277032 68.94792695 73.99707007 62.87394965 64.0625 59.3125 C60.42244554 58.4319088 57.0647667 58.19484082 53.32421875 58.21484375 C51.72416992 58.21967773 51.72416992 58.21967773 50.09179688 58.22460938 C48.98900391 58.23298828 47.88621094 58.24136719 46.75 58.25 C45.06680664 58.25676758 45.06680664 58.25676758 43.34960938 58.26367188 C40.5871849 58.27542687 37.82487002 58.29185923 35.0625 58.3125 Z " fill="#FFFFFF" transform="translate(491.9375,141.6875)"/>
<path d="M0 0 C3.34201929 2.12673955 5.8623933 4.1321372 7 8 C6.73357234 12.26284248 5.82901615 14.80198175 3 18 C4.175625 18.12375 4.175625 18.12375 5.375 18.25 C6.674375 18.62125 6.674375 18.62125 8 19 C8.25007813 19.66386719 8.50015625 20.32773437 8.7578125 21.01171875 C9.16773438 21.66785156 9.57765625 22.32398437 10 23 C13.00494488 23.5982306 13.00494488 23.5982306 16.5 23.5625 C27.24457656 24.07832748 35.21326506 26.1964833 43 34 C43.31710937 34.70382813 43.63421875 35.40765625 43.9609375 36.1328125 C44.8553747 38.19494414 44.8553747 38.19494414 47.1015625 38.87109375 C48.35066406 39.15146484 48.35066406 39.15146484 49.625 39.4375 C54.62300896 40.76498279 59.03606871 42.60530167 63 46 C63.33 46.99 63.66 47.98 64 49 C64.66 49 65.32 49 66 49 C68.04014021 54.64038763 68.18727591 59.11159122 67 65 C66.67 65.66 66.34 66.32 66 67 C65.34 67 64.68 67 64 67 C62.49069817 70.3863251 62.49069817 70.3863251 62 74 C62.6290625 74.15855469 63.258125 74.31710938 63.90625 74.48046875 C71.68095569 76.59977858 78.73990212 79.6440484 84 86 C84 86.66 84 87.32 84 88 C75 85 75 85 73.09057617 84.26904297 C66.83500018 81.9718811 60.81295218 81.22020001 54.1875 80.75 C53.09526123 80.66919189 52.00302246 80.58838379 50.87768555 80.50512695 C33.56394241 79.36969624 17.58615057 80.73316313 0.98046875 85.8359375 C-10.31935223 89.30618085 -21.44473089 92.57344267 -33.125 94.5 C-34.08905762 94.65976318 -35.05311523 94.81952637 -36.04638672 94.98413086 C-45.54829788 96.43007386 -54.0085272 96.13743483 -63.4375 94.3125 C-64.82291992 94.04457642 -64.82291992 94.04457642 -66.23632812 93.77124023 C-75.20520478 91.92494017 -83.07707208 89.30494444 -89 82 C-89 81.34 -89 80.68 -89 80 C-88.360625 80.268125 -87.72125 80.53625 -87.0625 80.8125 C-86.051875 81.204375 -85.04125 81.59625 -84 82 C-83.13955078 82.36158203 -83.13955078 82.36158203 -82.26171875 82.73046875 C-74.47707713 85.70828312 -66.23152898 86.1966935 -58 87 C-58.66386719 86.01 -59.32773437 85.02 -60.01171875 84 C-61.832743 81.2832659 -63.63983058 78.55778511 -65.44140625 75.828125 C-66.84329182 73.70972014 -68.26096929 71.64898196 -69.77734375 69.609375 C-73.60662837 64.32607216 -73.97751836 59.4017869 -73 53 C-71.93094147 48.81950245 -70.07809474 46.73692552 -66.53125 44.3125 C-62.42890272 41.96830156 -58.73075595 40.17679579 -54.125 39.0625 C-50.7382493 37.91100476 -50.40234571 37.51709769 -48.5625 34.6875 C-44.53235632 28.4942121 -39.59175077 26.1784911 -32.42529297 24.63964844 C-28.0249519 23.77709079 -23.62852626 23.07447298 -19.17578125 22.546875 C-15.43603738 21.90288467 -14.44312884 20.79214724 -12 18 C-11.01 17.67 -10.02 17.34 -9 17 C-9.495 16.67 -9.99 16.34 -10.5 16 C-12.44755577 13.40325898 -12.47485798 11.19265177 -12.36328125 8.00390625 C-11.79822507 4.88698347 -10.22882343 3.1632698 -8 1 C-5.14675563 -0.42662219 -3.16545451 -0.31033868 0 0 Z M-4 22 C-10.21223201 28.61005967 -15.09200142 35.6212356 -15.625 44.8125 C-15.34636014 52.41264251 -12.31827755 58.57574952 -7.04296875 64.01953125 C-5.4270232 65.42484439 -3.72145798 66.7261211 -2 68 C5.07117475 59.65231864 9.72447319 53.3501613 9.4140625 42.0625 C8.37873573 34.40498882 3.7675363 27.10790605 -2 22 C-2.66 22 -3.32 22 -4 22 Z M-35 35 C-37.52560999 38.01130422 -39.12943884 41.10075511 -38.85668945 45.1027832 C-37.19435338 52.71860197 -34.97485227 60.13282004 -32.625 67.5625 C-32.23430681 68.8574013 -31.84368138 70.15232305 -31.453125 71.44726562 C-31.06898438 72.66220703 -30.68484375 73.87714844 -30.2890625 75.12890625 C-29.94568848 76.23306885 -29.60231445 77.33723145 -29.24853516 78.47485352 C-28.26572222 81.12332076 -28.26572222 81.12332076 -26.04541016 81.91552734 C-22.99940191 82.04132334 -20.60466617 81.08645634 -17.75 80.0625 C-16.67234375 79.68222656 -15.5946875 79.30195312 -14.484375 78.91015625 C-13.66453125 78.60980469 -12.8446875 78.30945313 -12 78 C-12.39390093 69.13722903 -17.65843581 62.17222932 -22.1875 54.8125 C-26.52468328 47.61801225 -29.25856364 41.13549773 -27.5 32.5625 C-27.335 32.046875 -27.17 31.53125 -27 31 C-29.91910073 31 -32.76501491 33.28003321 -35 35 Z M22 32 C22.04640625 32.60585938 22.0928125 33.21171875 22.140625 33.8359375 C22.63321524 45.27106812 17.16156716 53.91978707 11.53515625 63.4921875 C10.83712891 64.70261719 10.83712891 64.70261719 10.125 65.9375 C9.69445312 66.66839844 9.26390625 67.39929688 8.8203125 68.15234375 C8.54960937 68.76207031 8.27890625 69.37179688 8 70 C8.33 70.66 8.66 71.32 9 72 C14.61 71.34 20.22 70.68 26 70 C26.33773437 68.81921875 26.67546875 67.6384375 27.0234375 66.421875 C27.47375566 64.86452471 27.92428771 63.30723627 28.375 61.75 C28.70757813 60.58404297 28.70757813 60.58404297 29.046875 59.39453125 C29.26601563 58.64042969 29.48515625 57.88632813 29.7109375 57.109375 C29.90993652 56.41811523 30.10893555 55.72685547 30.31396484 55.01464844 C31 53 31 53 32.06103516 50.98925781 C33.5871128 47.75616353 33.43658432 44.47188486 33 41 C31.13013141 36.42921011 28.22627649 34.42786096 24 32 C23.34 32 22.68 32 22 32 Z M46 46 C45.60167969 47.14597656 45.20335937 48.29195312 44.79296875 49.47265625 C44.25794062 51.00264898 43.72277715 52.53259438 43.1875 54.0625 C42.92646484 54.81466797 42.66542969 55.56683594 42.39648438 56.34179688 C40.76907517 60.98292683 38.98925559 65.50177338 37 70 C41.62 70.66 46.24 71.32 51 72 C54.12635228 65.84499394 56.09489162 60.94783079 55 54 C53.13113908 49.2240221 50.49924317 48.13378741 46 46 Z M-56.5 48.875 C-57.1290625 49.40867188 -57.758125 49.94234375 -58.40625 50.4921875 C-61.02401941 52.96880268 -61.01342014 54.14314818 -61.36328125 57.875 C-61.28891904 64.16679885 -58.75839022 69.35762898 -56.1875 75 C-55.73568359 76.04800781 -55.28386719 77.09601563 -54.81835938 78.17578125 C-53.07290355 82.17305855 -53.07290355 82.17305855 -51 86 C-47.42619658 87.19126781 -45.49116698 86.7349445 -41.8125 86.0625 C-40.18248047 85.77052734 -40.18248047 85.77052734 -38.51953125 85.47265625 C-37.27236328 85.23869141 -37.27236328 85.23869141 -36 85 C-38.89612937 77.51683343 -42.08078259 70.1725506 -45.31640625 62.83203125 C-47.75901146 57.28154988 -50.16404821 51.79030948 -52 46 C-53.85937218 46 -55.15138553 47.71983433 -56.5 48.875 Z " fill="#FFFFFF" transform="translate(493,23)"/>
<path d="M0 0 C1.50128114 -0.00677215 3.00255121 -0.01695992 4.50378418 -0.03076172 C16.24155706 -0.12991099 27.60036529 -0.12895528 37.89813232 6.17724609 C38.76438232 6.69287109 39.63063232 7.20849609 40.52313232 7.73974609 C48.17317487 15.59110555 50.22082372 24.58430979 50.11688232 35.17333984 C49.6415339 41.70089235 46.9838581 47.09769513 42.89813232 52.17724609 C33.61583567 60.17724609 33.61583567 60.17724609 27.89813232 60.17724609 C27.89813232 60.83724609 27.89813232 61.49724609 27.89813232 62.17724609 C28.45500732 62.42474609 29.01188232 62.67224609 29.58563232 62.92724609 C40.31802934 68.72854178 45.75061682 81.11556752 51.77069092 91.27685547 C60.91525859 107.18171909 60.91525859 107.18171909 75.89813232 117.17724609 C75.89813232 118.16724609 75.89813232 119.15724609 75.89813232 120.17724609 C55.73722316 121.78952352 55.73722316 121.78952352 49.90594482 118.47802734 C47.7961264 115.82981128 46.37632048 113.22389343 44.89813232 110.17724609 C44.20219922 109.01011177 43.49176065 107.85153945 42.76922607 106.70068359 C41.209136 104.20799233 39.69361622 101.69771679 38.21844482 99.15380859 C36.61989383 96.39915046 34.9888391 93.66814618 33.32781982 90.95068359 C32.91072754 90.26643311 32.49363525 89.58218262 32.06390381 88.87719727 C31.25877023 87.55803287 30.45107856 86.24042561 29.64056396 84.92456055 C26.89813232 80.4009303 26.89813232 80.4009303 26.89813232 78.17724609 C26.23813232 78.17724609 25.57813232 78.17724609 24.89813232 78.17724609 C20.89813232 73.70665786 20.89813232 73.70665786 20.89813232 71.17724609 C20.09375732 70.80599609 20.09375732 70.80599609 19.27313232 70.42724609 C16.89813232 69.17724609 16.89813232 69.17724609 13.83563232 67.11474609 C9.57453429 64.30423463 6.22385065 63.96219687 1.21063232 63.61474609 C0.03114014 63.53095703 -1.14835205 63.44716797 -2.36358643 63.36083984 C-3.71903564 63.26996094 -3.71903564 63.26996094 -5.10186768 63.17724609 C-5.03281006 69.31574316 -4.94475449 75.45357084 -4.8394165 81.59155273 C-4.80625106 83.67773996 -4.77819325 85.76401511 -4.75543213 87.8503418 C-4.72173198 90.85682488 -4.66940799 93.86250835 -4.61358643 96.86865234 C-4.6071965 97.79496964 -4.60080658 98.72128693 -4.59422302 99.67567444 C-4.46926295 105.23352065 -3.78773946 109.27161863 -1.10186768 114.17724609 C1.09268445 115.6245026 1.09268445 115.6245026 3.58563232 116.11474609 C4.79799561 116.43765625 4.79799561 116.43765625 6.03485107 116.76708984 C6.64973389 116.90244141 7.2646167 117.03779297 7.89813232 117.17724609 C7.89813232 118.16724609 7.89813232 119.15724609 7.89813232 120.17724609 C-4.97186768 120.17724609 -17.84186768 120.17724609 -31.10186768 120.17724609 C-31.10186768 119.51724609 -31.10186768 118.85724609 -31.10186768 118.17724609 C-30.55917236 117.92330078 -30.01647705 117.66935547 -29.45733643 117.40771484 C-28.74190674 117.06353516 -28.02647705 116.71935547 -27.28936768 116.36474609 C-26.58167236 116.02830078 -25.87397705 115.69185547 -25.14483643 115.34521484 C-22.99578547 114.11659872 -21.67621183 113.08507708 -20.10186768 111.17724609 C-19.52375342 108.99344991 -19.52375342 108.99344991 -19.41770935 106.57209778 C-19.32133462 105.23626868 -19.32133462 105.23626868 -19.22301292 103.87345314 C-19.04283814 99.86348563 -18.99907965 95.87295387 -19.04840088 91.85961914 C-19.05799332 90.55274391 -19.05799332 90.55274391 -19.06777954 89.21946716 C-19.09032952 86.3758822 -19.12101163 83.5324622 -19.15264893 80.68896484 C-19.17190869 78.69741507 -19.19096355 76.7058633 -19.20982361 74.71430969 C-19.25062885 70.557943 -19.29583172 66.40165111 -19.34381104 62.24536133 C-19.40463834 56.92144113 -19.4514477 51.59749849 -19.4946413 46.27340984 C-19.52998882 42.16840018 -19.57422179 38.06352166 -19.62099266 33.9586277 C-19.64201238 31.99507513 -19.65992229 30.03148669 -19.67464638 28.06787682 C-19.69622534 25.32768895 -19.73013422 22.58791729 -19.76715088 19.84790039 C-19.77088211 19.04002075 -19.77461334 18.23214111 -19.77845764 17.39978027 C-19.84794805 13.26795951 -20.06025572 9.82596637 -22.10186768 6.17724609 C-24.49302143 5.14380875 -24.49302143 5.14380875 -27.22686768 4.86474609 C-28.59198486 4.65398437 -28.59198486 4.65398437 -29.98468018 4.43896484 C-30.68335205 4.35259766 -31.38202393 4.26623047 -32.10186768 4.17724609 C-32.10186768 3.18724609 -32.10186768 2.19724609 -32.10186768 1.17724609 C-21.41389657 0.25073467 -10.72250343 0.04357226 0 0 Z M-5.10186768 5.17724609 C-5.10186768 22.66724609 -5.10186768 40.15724609 -5.10186768 58.17724609 C12.28808455 58.79207849 12.28808455 58.79207849 27.89813232 52.17724609 C33.47443697 44.80768048 35.67191046 38.33362068 34.89813232 29.17724609 C33.38936926 20.90462149 30.24309912 14.49986776 23.50750732 9.34912109 C13.49570421 3.36441197 7.87506354 5.17724609 -5.10186768 5.17724609 Z " fill="#FFFFFF" transform="translate(852.1018676757813,313.82275390625)"/>
<path d="M0 0 C15.51 0 31.02 0 47 0 C47 1.32 47 2.64 47 4 C42.38 4.99 37.76 5.98 33 7 C31.03388134 12.73128432 30.75169696 17.73939 30.859375 23.76953125 C30.86829773 24.72084427 30.87722046 25.67215729 30.88641357 26.65229797 C30.90648995 28.70185813 30.93090212 30.75137955 30.95922852 32.80084229 C31.00037269 36.02924296 31.02140862 39.25722156 31.03710938 42.48583984 C31.06704006 48.08179431 31.12937379 53.67673988 31.20751953 59.2722168 C31.23608381 61.56868611 31.25711738 63.86526022 31.27099609 66.16186523 C31.29250377 69.54980209 31.33906441 72.93662178 31.390625 76.32421875 C31.39185364 77.33586594 31.39308228 78.34751312 31.39434814 79.38981628 C31.58460798 88.74174782 34.02899495 97.62405258 40 105 C48.0967124 112.72868002 56.50931971 115.39061015 67.609375 115.28125 C82.05766572 114.08277427 94.83472125 107.16527875 105 97 C105.09931838 95.09169556 105.12799482 93.17968554 105.12939453 91.26879883 C105.13412277 89.42340263 105.13412277 89.42340263 105.13894653 87.54072571 C105.13715262 86.17949387 105.13510066 84.81826235 105.1328125 83.45703125 C105.13348701 82.0538481 105.13445826 80.65066506 105.13571167 79.2474823 C105.13719186 76.28566389 105.13503061 73.32387548 105.13037109 70.36206055 C105.12478196 66.63391201 105.12799974 62.90583633 105.13377762 59.17769051 C105.15172404 45.83010358 105.14305855 32.47760785 104.6796875 19.13671875 C104.65770294 18.25095657 104.63571838 17.3651944 104.61306763 16.45259094 C104.46157457 12.95952825 104.31741533 10.5879391 102.63989258 7.48071289 C100.22149325 5.29706067 98.0038974 5.16179321 94.8125 4.75 C93.72582031 4.60046875 92.63914062 4.4509375 91.51953125 4.296875 C90.68808594 4.19890625 89.85664063 4.1009375 89 4 C88.505 2.02 88.505 2.02 88 0 C103.84 0 119.68 0 136 0 C136 0.99 136 1.98 136 3 C134.64455078 3.23783203 134.64455078 3.23783203 133.26171875 3.48046875 C132.08222656 3.71378906 130.90273438 3.94710938 129.6875 4.1875 C128.51574219 4.40792969 127.34398437 4.62835938 126.13671875 4.85546875 C122.92408436 5.71786571 122.92408436 5.71786571 121.32623291 8.11036682 C119.66523378 11.72939795 119.63246346 14.39867217 119.64355469 18.37866211 C119.64151031 19.10483231 119.63946594 19.8310025 119.63735962 20.57917786 C119.63435488 22.97882379 119.6528494 25.37777927 119.671875 27.77734375 C119.67493907 29.46627127 119.67681026 31.15520133 119.67755127 32.84413147 C119.68215575 36.39415099 119.69656511 39.9439439 119.71875 43.49389648 C119.74666872 47.97746259 119.75780505 52.4608502 119.76261139 56.94449425 C119.77481222 67.6306721 119.85609479 78.31480766 120 89 C120.01538818 90.26241516 120.03077637 91.52483032 120.04663086 92.82550049 C120.09498854 95.96958564 120.17162949 99.11090184 120.265625 102.25390625 C120.27873718 103.11604233 120.29184937 103.97817841 120.30535889 104.86643982 C120.44945299 108.44964676 120.69873998 110.5961056 122.87109375 113.50854492 C125.57570482 115.40332348 127.4711445 115.59386402 130.75 115.75 C132.22726562 115.83507812 132.22726562 115.83507812 133.734375 115.921875 C134.48203125 115.94765625 135.2296875 115.9734375 136 116 C136 117.32 136 118.64 136 120 C131.8882744 120.02465746 127.77657722 120.04283959 123.66479492 120.05493164 C122.26504772 120.0599708 120.8653058 120.06680216 119.46557617 120.07543945 C117.45754223 120.0875232 115.44947043 120.09269807 113.44140625 120.09765625 C112.23170166 120.10289307 111.02199707 120.10812988 109.77563477 120.11352539 C107 120 107 120 106 119 C105.76346477 116.47403741 105.57826308 113.96892793 105.4375 111.4375 C105.39431641 110.72658203 105.35113281 110.01566406 105.30664062 109.28320312 C105.20028223 107.52238088 105.09961154 105.7612168 105 104 C104.39414063 104.50789063 103.78828125 105.01578125 103.1640625 105.5390625 C87.89451592 118.08358231 72.97454712 124.17121545 53 123 C41.21329187 121.18775795 30.34974976 116.70166969 23 107 C18.78305768 99.42628767 16.85793481 93.01128189 16.82641602 84.38916016 C16.819729 83.62768173 16.81304199 82.86620331 16.80615234 82.08164978 C16.7921256 80.43111377 16.78022402 78.78055864 16.77020454 77.12999344 C16.75375596 74.51517027 16.73051646 71.9004886 16.70530701 69.28573608 C16.63463822 61.85234664 16.5744492 54.41889978 16.52319336 46.98535156 C16.49134491 42.43543132 16.45005611 37.88567502 16.40299797 33.33588791 C16.38701515 31.60482107 16.37467646 29.87371653 16.36609077 28.1425972 C16.35389246 25.7181057 16.32972427 23.29399748 16.30297852 20.86962891 C16.30238937 20.1587764 16.30180023 19.44792389 16.30119324 18.7155304 C16.23927195 14.46448942 15.77912312 10.88327724 14 7 C10.7054125 5.61896913 10.7054125 5.61896913 6.875 5.125 C5.59367188 4.90070313 4.31234375 4.67640625 2.9921875 4.4453125 C2.00476563 4.29835938 1.01734375 4.15140625 0 4 C0 2.68 0 1.36 0 0 Z " fill="#FFFFFF" transform="translate(131,317)"/>
<path d="M0 0 C7.77372957 -0.10197178 15.54728468 -0.17170477 23.3215332 -0.21972656 C25.96254929 -0.23975996 28.60352149 -0.26699451 31.24438477 -0.30175781 C35.05496091 -0.350639 38.86494721 -0.37305267 42.67578125 -0.390625 C43.84393875 -0.41127014 45.01209625 -0.43191528 46.21565247 -0.45318604 C57.32937595 -0.45618312 66.09234698 2.10303803 74.125 9.94921875 C80.81467865 17.26605478 82.29151511 26.00363736 81.8828125 35.8125 C80.55220794 44.50216241 75.57430514 51.34765659 68.8125 56.78125 C66.01015308 58.66558672 63.16598136 59.83698644 60 61 C60.4846875 61.38929688 60.969375 61.77859375 61.46875 62.1796875 C71.00702641 70.14047973 77.01414044 79.46205785 82.90625 90.2265625 C85.34919853 94.67527723 88.04682887 98.87354197 91 103 C91.51820313 103.77988281 92.03640625 104.55976563 92.5703125 105.36328125 C96.80214888 111.3764255 101.20190479 114.27802626 108 117 C108 117.66 108 118.32 108 119 C104.14714438 119.26303192 100.29660407 119.42172203 96.4375 119.5625 C95.35146484 119.63791016 94.26542969 119.71332031 93.14648438 119.79101562 C85.25429171 120.00691147 85.25429171 120.00691147 81.88696289 117.30371094 C80.03025828 114.9625703 78.51101056 112.57681049 77 110 C75.89987869 108.35493299 74.7970239 106.71169058 73.69140625 105.0703125 C72.64354753 103.42497906 71.60056665 101.77652888 70.5625 100.125 C70.02173828 99.28453125 69.48097656 98.4440625 68.92382812 97.578125 C68.41400391 96.77117187 67.90417969 95.96421875 67.37890625 95.1328125 C66.9207251 94.40980957 66.46254395 93.68680664 65.99047852 92.94189453 C65 91 65 91 65 88 C64.34 88 63.68 88 63 88 C61.80859375 86.1640625 61.80859375 86.1640625 60.4375 83.625 C55.26337423 74.78377538 49.25466485 66.71110288 39 64 C36.90730207 63.75620823 34.8084617 63.56118308 32.70703125 63.41015625 C31.09985229 63.29039429 31.09985229 63.29039429 29.46020508 63.16821289 C28.6483374 63.11270264 27.83646973 63.05719238 27 63 C27.0670493 69.45992684 27.1568753 75.91925082 27.26245117 82.37866211 C27.29568055 84.57552927 27.32371866 86.7724814 27.34643555 88.96948242 C27.38001754 92.12976243 27.43233634 95.28926521 27.48828125 98.44921875 C27.49467117 99.42960617 27.5010611 100.40999359 27.50764465 101.42008972 C27.64261106 108.20544109 27.64261106 108.20544109 31 114 C33.22857246 115.22171716 33.22857246 115.22171716 35.6875 115.8125 C36.49574219 116.04582031 37.30398438 116.27914062 38.13671875 116.51953125 C39.05904297 116.75736328 39.05904297 116.75736328 40 117 C39.505 118.485 39.505 118.485 39 120 C26.13 120 13.26 120 0 120 C0 119.01 0 118.02 0 117 C0.61488281 116.84144531 1.22976563 116.68289063 1.86328125 116.51953125 C3.07564453 116.16955078 3.07564453 116.16955078 4.3125 115.8125 C5.11300781 115.59207031 5.91351563 115.37164062 6.73828125 115.14453125 C9.8587973 113.56541 10.53193375 112.18691702 12 109 C12.43293127 105.93928922 12.40999912 102.90986813 12.38818359 99.82275391 C12.39344055 98.90667862 12.39869751 97.99060333 12.40411377 97.04676819 C12.41730024 94.02319201 12.40857889 91.0001439 12.3984375 87.9765625 C12.40045897 85.87055358 12.40337102 83.76454534 12.40713501 81.65853882 C12.41155683 77.24527317 12.40513305 72.83218976 12.39111328 68.41894531 C12.37404263 62.770897 12.38385021 57.12327704 12.40183067 51.47524452 C12.4126902 47.12570999 12.40921183 42.77627637 12.4014473 38.42673874 C12.3994502 36.34479089 12.40188729 34.2628338 12.40888596 32.18089676 C12.41653366 29.26569749 12.40484861 26.3511836 12.38818359 23.43603516 C12.39425629 22.58073715 12.40032898 21.72543915 12.40658569 20.84422302 C12.35014059 15.4946715 11.54685275 11.7358982 9 7 C6.14106555 4.80081965 3.53728413 3.65505262 0 3 C0 2.01 0 1.02 0 0 Z M26 5 C25.87079698 22.69683879 26.12317343 40.32354939 27 58 C44.5685182 58.33564382 44.5685182 58.33564382 60 51 C66.11909968 44.40792643 66.35337132 38.28466685 66.28125 29.62109375 C65.77334482 23.08181452 63.79238784 18.11409848 59.5625 13.125 C58.716875 12.42375 57.87125 11.7225 57 11 C56.21625 10.278125 55.4325 9.55625 54.625 8.8125 C48.54499031 4.61439807 42.18816366 4.73411235 35.0625 4.875 C34.18787109 4.88402344 33.31324219 4.89304687 32.41210938 4.90234375 C30.27461936 4.9257043 28.13727214 4.96156753 26 5 Z " fill="#FFFFFF" transform="translate(276,317)"/>
<path d="M0 0 C5.19377068 5.7572458 6.6371397 12.55686189 6.43359375 20.171875 C5.75823273 24.97760184 3.95503748 29.36841645 2.0625 33.8125 C1.4025 33.8125 0.7425 33.8125 0.0625 33.8125 C-0.164375 34.39 -0.39125 34.9675 -0.625 35.5625 C-2.27801439 38.39623895 -4.33392213 39.84394113 -6.9375 41.8125 C-7.94933306 42.80052523 -8.95196953 43.79823687 -9.9375 44.8125 C-9.32003906 44.95945312 -8.70257813 45.10640625 -8.06640625 45.2578125 C2.13559774 47.9597131 8.92417701 52.35676569 14.6875 61.30859375 C19.28406064 69.67903514 19.07636025 79.36238402 16.9375 88.5 C14.00518914 98.1190758 6.94377892 105.33688915 -1.8125 110.0625 C-8.65054905 113.17660204 -14.94698296 113.93849229 -22.4375 113.890625 C-23.17258286 113.88816772 -23.90766571 113.88571045 -24.6650238 113.88317871 C-34.11265663 113.83045679 -43.55613028 113.56790187 -53 113.3125 C-54.8496041 113.26412099 -56.69921347 113.21594288 -58.54882812 113.16796875 C-63.01178258 113.05178466 -67.47465787 112.93291827 -71.9375 112.8125 C-71.9375 111.8225 -71.9375 110.8325 -71.9375 109.8125 C-70.69033203 109.64814453 -70.69033203 109.64814453 -69.41796875 109.48046875 C-68.33128906 109.32191406 -67.24460937 109.16335938 -66.125 109 C-65.04605469 108.84917969 -63.96710938 108.69835937 -62.85546875 108.54296875 C-59.7960235 107.77708353 -58.68398622 107.39451451 -56.9375 104.8125 C-55.79120799 100.54416116 -55.81880178 96.3493361 -55.86328125 91.96484375 C-55.86789871 91.12243637 -55.87251617 90.28002899 -55.87727356 89.41209412 C-55.88838269 87.40726648 -55.90149837 85.40244945 -55.91607666 83.39764404 C-55.94068461 79.27956336 -55.94805812 75.16159781 -55.95458984 71.04345703 C-55.96829376 63.4661355 -56.00940853 55.88928167 -56.06960869 48.3121891 C-56.1041675 43.8710578 -56.12903375 39.43028627 -56.13305664 34.98901367 C-56.13733267 30.6343836 -56.16567757 26.28052071 -56.21093178 21.92613029 C-56.22386893 20.28077596 -56.22822791 18.63532994 -56.22365379 16.98993111 C-56.21875912 14.70279919 -56.24476088 12.41795375 -56.27807617 10.13110352 C-56.28806892 8.18639915 -56.28806892 8.18639915 -56.29826355 6.20240784 C-57.09983595 1.95162306 -58.59359362 0.4697455 -61.9375 -2.1875 C-64.57759148 -2.98845024 -64.57759148 -2.98845024 -67.25 -3 C-68.13300781 -3.04769531 -69.01601563 -3.09539062 -69.92578125 -3.14453125 C-70.92158203 -3.16580078 -70.92158203 -3.16580078 -71.9375 -3.1875 C-71.9375 -4.5075 -71.9375 -5.8275 -71.9375 -7.1875 C-70.82846313 -7.17964478 -70.82846313 -7.17964478 -69.69702148 -7.17163086 C-53.2085274 -6.9655323 -53.2085274 -6.9655323 -36.75 -7.75 C-23.94425078 -8.75090913 -10.11634942 -9.04594731 0 0 Z M-40.9375 -0.1875 C-41.85611784 2.56835352 -42.05954322 4.1721069 -42.05102539 7.00854492 C-42.05094986 7.84918991 -42.05087433 8.6898349 -42.05079651 9.55595398 C-42.04563522 10.45916885 -42.04047394 11.36238373 -42.03515625 12.29296875 C-42.0337413 13.22095779 -42.03232635 14.14894684 -42.03086853 15.10505676 C-42.02526937 18.07007058 -42.01271704 21.03500899 -42 24 C-41.99498489 26.00976453 -41.990422 28.01953025 -41.98632812 30.02929688 C-41.97530021 34.95706032 -41.95803617 39.88476737 -41.9375 44.8125 C-39.70711713 44.84303512 -37.47661265 44.86476785 -35.24609375 44.8828125 C-34.00400146 44.89586426 -32.76190918 44.90891602 -31.48217773 44.92236328 C-24.13781733 44.69473313 -18.73212141 42.43177558 -13.375 37.421875 C-8.20997104 31.63928823 -7.6304208 24.85001825 -7.71875 17.44140625 C-8.2435609 11.13430383 -10.28141393 5.21690574 -14.9375 0.8125 C-20.72527431 -3.64188833 -26.66636168 -3.62884404 -33.765625 -3.62109375 C-37.15123128 -3.15828304 -38.55792728 -2.59540096 -40.9375 -0.1875 Z M-41.9375 50.8125 C-41.98842721 57.21708765 -42.02332866 63.62162259 -42.04736328 70.02636719 C-42.05738854 72.20281933 -42.07101222 74.37925812 -42.08837891 76.55566406 C-42.11278028 79.69339303 -42.12401813 82.83094308 -42.1328125 85.96875 C-42.14313507 86.93365356 -42.15345764 87.89855713 -42.16409302 88.8927002 C-42.16502014 94.54121975 -41.76364605 99.44230305 -39.9375 104.8125 C-35.02156373 108.70942938 -30.85295934 109.50395811 -24.6875 109.375 C-23.94459717 109.36404297 -23.20169434 109.35308594 -22.4362793 109.34179688 C-14.92409101 109.04870185 -8.53108346 107.28969209 -3.0078125 101.9453125 C3.579993 93.84451818 3.78409994 84.89199116 3.0625 74.8125 C1.75467351 67.42712688 -1.97048504 60.93226825 -7.89453125 56.2734375 C-15.56980766 51.2544231 -22.3007879 50.5363358 -31.3125 50.6875 C-32.84583984 50.70103516 -32.84583984 50.70103516 -34.41015625 50.71484375 C-36.91951522 50.7382957 -39.42838336 50.77111645 -41.9375 50.8125 Z " fill="#FFFFFF" transform="translate(458.9375,323.1875)"/>
<path d="M0 0 C29.61101146 -0.82287975 29.61101146 -0.82287975 41.14892578 9.11181641 C49.10876523 17.55245153 49.70837482 26.64082798 49.46142578 37.71728516 C49.18654668 43.11751413 47.92519238 47.45875899 45.14892578 52.11181641 C44.72482422 52.82595703 44.30072266 53.54009766 43.86376953 54.27587891 C38.19955668 62.7011983 28.64416099 68.06766135 18.95751953 70.70947266 C14.95320687 71.28310855 11.00104752 71.25616017 6.96142578 71.23681641 C6.14222656 71.24068359 5.32302734 71.24455078 4.47900391 71.24853516 C-1.59764214 71.23853245 -1.59764214 71.23853245 -3.85107422 70.11181641 C-3.35607422 68.13181641 -3.35607422 68.13181641 -2.85107422 66.11181641 C-2.10083984 66.14662109 -1.35060547 66.18142578 -0.57763672 66.21728516 C8.67048691 66.46188288 17.14933135 65.51641932 24.61767578 59.61572266 C31.24453904 53.10719624 33.1612853 45.14215463 33.39892578 36.11181641 C33.12310681 26.19765679 30.54219479 18.8247895 23.63330078 11.50634766 C17.90187693 6.36314888 11.86203526 5.76746697 4.52392578 5.79931641 C3.77369141 5.78320312 3.02345703 5.76708984 2.25048828 5.75048828 C-0.84545172 5.74774365 -3.29144543 5.81016987 -6.04806519 7.29602051 C-8.46088113 9.72594804 -8.43980715 11.13042362 -8.59765625 14.52783203 C-8.65278381 15.69548096 -8.70791138 16.86312988 -8.76470947 18.06616211 C-8.96909544 26.19592172 -8.9595134 34.32400812 -8.90576172 42.45556641 C-8.89719839 43.88462059 -8.89719839 43.88462059 -8.88846207 45.34254456 C-8.85716631 50.36694502 -8.81836906 55.39122689 -8.77392578 60.41552734 C-8.72984589 65.59486308 -8.71430217 70.77389438 -8.70469475 75.95339203 C-8.6918458 79.95299796 -8.65717468 83.95220275 -8.61658096 87.95161438 C-8.60110606 89.86211763 -8.59399621 91.77270798 -8.59548569 93.68327332 C-8.59566489 96.34709443 -8.56478667 99.00885781 -8.52636719 101.67236328 C-8.53342178 102.45682831 -8.54047638 103.24129333 -8.54774475 104.04953003 C-8.45484137 108.09450332 -8.01834739 109.90487586 -5.44187927 113.09233093 C-2.91420714 115.06260544 -1.76562716 115.7754799 1.35595703 116.03759766 C2.10683594 116.11171875 2.85771484 116.18583984 3.63134766 116.26220703 C4.40027344 116.31570313 5.16919922 116.36919922 5.96142578 116.42431641 C7.14381836 116.53356445 7.14381836 116.53356445 8.35009766 116.64501953 C10.28132912 116.82058603 12.21499975 116.96895748 14.14892578 117.11181641 C14.14892578 118.43181641 14.14892578 119.75181641 14.14892578 121.11181641 C-3.34107422 121.11181641 -20.83107422 121.11181641 -38.85107422 121.11181641 C-38.85107422 119.79181641 -38.85107422 118.47181641 -38.85107422 117.11181641 C-37.94744141 117.04865234 -37.04380859 116.98548828 -36.11279297 116.92041016 C-34.93330078 116.79794922 -33.75380859 116.67548828 -32.53857422 116.54931641 C-31.36681641 116.44490234 -30.19505859 116.34048828 -28.98779297 116.23291016 C-25.63733234 115.40452006 -25.63733234 115.40452006 -24.16821289 112.37353516 C-21.98759069 106.73914772 -22.52642155 100.74629953 -22.64013672 94.80322266 C-22.66007826 92.79377704 -22.68001645 90.78433139 -22.69980049 88.77488422 C-22.72347778 86.65671078 -22.75459127 84.53876077 -22.78771973 82.42071533 C-22.85329202 78.16404317 -22.89134524 73.90742294 -22.92431641 69.65039062 C-22.97624238 63.26172324 -23.04931303 56.87359364 -23.1386528 50.48534203 C-23.18929496 46.86095329 -23.23587877 43.23661608 -23.27294922 39.61206055 C-23.30980127 36.01118569 -23.35603504 32.41054818 -23.40913773 28.8098774 C-23.43634599 26.81301914 -23.45429685 24.81604154 -23.47201538 22.81907654 C-23.50181992 21.01286583 -23.50181992 21.01286583 -23.53222656 19.17016602 C-23.54555023 18.1170372 -23.5588739 17.06390839 -23.57260132 15.97886658 C-23.86355147 12.9833554 -24.51643108 10.80088278 -25.85107422 8.11181641 C-28.77012236 6.04309968 -31.58541644 5.76436834 -35.10107422 5.48681641 C-35.99310547 5.41205078 -36.88513672 5.33728516 -37.80419922 5.26025391 C-38.81740234 5.18677734 -38.81740234 5.18677734 -39.85107422 5.11181641 C-39.85107422 3.79181641 -39.85107422 2.47181641 -39.85107422 1.11181641 C-28.59796159 0.75851227 -17.34428822 0.44641705 -6.08905029 0.16900635 C-4.05924784 0.11713614 -2.02960976 0.05892997 0 0 Z " fill="#FFFFFF" transform="translate(80.85107421875,316.88818359375)"/>
<path d="M0 0 C1.88378906 0.29663086 1.88378906 0.29663086 4 1 C5.44170406 3.52298211 6.61228067 5.90608988 7.75 8.5625 C8.45916011 10.14272592 9.17013649 11.72213786 9.8828125 13.30078125 C10.23891602 14.09822754 10.59501953 14.89567383 10.96191406 15.71728516 C12.42802646 18.94121529 14.01742447 22.09489347 15.625 25.25 C19.43128944 32.79569984 23.13240842 40.39214911 26.8125 48 C27.11484558 48.62481262 27.41719116 49.24962524 27.72869873 49.89337158 C31.84969174 58.42080265 35.84870015 66.99434063 39.75 75.625 C43.12064207 83.06463866 46.63660628 90.39482411 50.4375 97.625 C50.8387207 98.38893066 51.23994141 99.15286133 51.65332031 99.93994141 C57.25929663 110.81156158 57.25929663 110.81156158 66.94140625 117.75390625 C68.60978571 118.23588254 70.30395596 118.62687031 72 119 C72 119.99 72 120.98 72 122 C57.15 122.33 42.3 122.66 27 123 C26.67 121.68 26.34 120.36 26 119 C28.86890229 117.56554886 31.73804294 117.56926882 34.90625 117.28125 C37.05443933 117.107845 37.05443933 117.107845 39 116 C38.64415634 109.58645234 37.33836347 104.64562866 34.4375 98.9375 C34.08252441 98.21216064 33.72754883 97.48682129 33.36181641 96.73950195 C32.25471033 94.48601169 31.12873219 92.24272255 30 90 C29.29994483 88.58895633 28.60070501 87.1775078 27.90234375 85.765625 C25.35326628 80.62907851 22.77182557 75.50933057 20.1640625 70.40234375 C19.61492187 69.32082031 19.06578125 68.23929687 18.5 67.125 C18.0153125 66.17882812 17.530625 65.23265625 17.03125 64.2578125 C16 62 16 62 16 60 C4.45 60 -7.1 60 -19 60 C-19.99 62.97 -20.98 65.94 -22 69 C-22.92273985 71.34781947 -23.87106532 73.6857834 -24.84765625 76.01171875 C-25.1050206 76.62843948 -25.36238495 77.24516022 -25.62754822 77.88056946 C-26.43617261 79.81749626 -27.24893421 81.75264413 -28.0625 83.6875 C-28.87924476 85.63322449 -29.69498531 87.57934759 -30.50816345 89.52656555 C-31.24275729 91.28521388 -31.98077153 93.04243237 -32.71899414 94.79956055 C-35.15147633 100.87682546 -36.63119231 105.47767946 -36 112 C-32.92133763 116.1814668 -29.72581903 116.82855203 -24.75 117.75 C-22.85507812 118.11351562 -22.85507812 118.11351562 -20.921875 118.484375 C-19.95765625 118.65453125 -18.9934375 118.8246875 -18 119 C-18 120.32 -18 121.64 -18 123 C-33.18 123 -48.36 123 -64 123 C-64 121.68 -64 120.36 -64 119 C-63.41992188 118.91363281 -62.83984375 118.82726562 -62.2421875 118.73828125 C-61.46101562 118.59777344 -60.67984375 118.45726562 -59.875 118.3125 C-59.10929688 118.18488281 -58.34359375 118.05726563 -57.5546875 117.92578125 C-52.02552803 115.92209502 -48.71690575 112.26748969 -46.13745117 107.09423828 C-45.69816284 106.15040283 -45.69816284 106.15040283 -45.25 105.1875 C-44.91911377 104.50155762 -44.58822754 103.81561523 -44.24731445 103.10888672 C-39.93050266 93.99217945 -36.17901361 84.62032795 -32.35595703 75.28955078 C-29.98253958 69.53164176 -27.55343087 63.79737378 -25.125 58.0625 C-24.67278076 56.9914502 -24.22056152 55.92040039 -23.75463867 54.81689453 C-21.89504796 50.42225483 -20.02643644 46.03697033 -18.0546875 41.69140625 C-16.30053405 37.7726186 -14.70169833 33.79737387 -13.125 29.8046875 C-12.87128632 29.16258835 -12.61757263 28.5204892 -12.35617065 27.8589325 C-11.30365703 25.190989 -10.25300663 22.52235338 -9.20898438 19.85107422 C-3.7800701 5.97905318 -3.7800701 5.97905318 0 0 Z M-3 21 C-3.30292969 21.79921875 -3.60585938 22.5984375 -3.91796875 23.421875 C-11.35893023 42.92864172 -11.35893023 42.92864172 -14.8125 49.625 C-16.1490712 51.85558728 -16.1490712 51.85558728 -16 54 C-6.43 54 3.14 54 13 54 C8.05034625 42.9757712 3.09830879 31.95636556 -2 21 C-2.33 21 -2.66 21 -3 21 Z " fill="#FFFFFF" transform="translate(743,312)"/>
<path d="M0 0 C0.99 0 1.98 0 3 0 C9.59954907 12.97314572 16.04160847 25.99047812 21.9934082 39.27539062 C24.79619078 45.49963019 27.77711595 51.61376467 30.84620667 57.7093811 C34.71095756 65.39052762 38.44891669 73.13187544 42.1875 80.875 C50.84186629 102.68199681 50.84186629 102.68199681 67 118 C69.26985894 118.76040572 69.26985894 118.76040572 71 119 C71 119.99 71 120.98 71 122 C56.48 122.33 41.96 122.66 27 123 C26.67 121.68 26.34 120.36 26 119 C26.77085937 118.87882812 27.54171875 118.75765625 28.3359375 118.6328125 C29.33882812 118.46523438 30.34171875 118.29765625 31.375 118.125 C32.37273437 117.96257812 33.37046875 117.80015625 34.3984375 117.6328125 C37.1425115 117.2041198 37.1425115 117.2041198 39 115 C38.99005863 107.78256588 35.2159858 101.69218856 32.0625 95.375 C31.17982974 93.57645058 30.29716833 91.77789651 29.41566467 89.97877502 C28.52423232 88.16177633 27.62893268 86.34671812 26.73339844 84.53173828 C24.17231604 79.31362308 21.67725281 74.06491921 19.1875 68.8125 C17.805625 65.904375 16.42375 62.99625 15 60 C3.78 60 -7.44 60 -19 60 C-19.99 62.97 -20.98 65.94 -22 69 C-22.58615215 70.51233973 -23.1907395 72.01801699 -23.83203125 73.5078125 C-24.15300781 74.2594165 -24.47398437 75.01102051 -24.8046875 75.78540039 C-25.13726563 76.55746826 -25.46984375 77.32953613 -25.8125 78.125 C-26.51740674 79.7927661 -27.22182794 81.46073749 -27.92578125 83.12890625 C-29.21378062 86.16767713 -30.52408359 89.19487254 -31.85546875 92.21484375 C-36.39940746 102.2683235 -36.39940746 102.2683235 -36 113 C-31.40524594 118.10528229 -24.54175478 118.19551236 -18 119 C-18 120.32 -18 121.64 -18 123 C-33.18 123 -48.36 123 -64 123 C-64 121.68 -64 120.36 -64 119 C-63.40832031 118.90203125 -62.81664062 118.8040625 -62.20703125 118.703125 C-56.38950158 117.60225479 -52.38866385 116.38693955 -48.82014465 111.32705688 C-45.73000474 106.46108393 -43.35120594 101.55070855 -41.19921875 96.2109375 C-40.50600387 94.5281937 -39.81247223 92.84558037 -39.11865234 91.16308594 C-38.76865173 90.30791382 -38.41865112 89.4527417 -38.05804443 88.57165527 C-36.36813394 84.46420279 -34.6296374 80.37757451 -32.89453125 76.2890625 C-32.21387684 74.67851887 -31.5335384 73.06784168 -30.85351562 71.45703125 C-29.82799823 69.02834249 -28.80187715 66.5999196 -27.77368164 64.17236328 C-24.0695325 55.42502687 -20.41335977 46.67734788 -17.06323242 37.78710938 C-14.06804682 29.93566531 -10.70756647 22.24525449 -7.1953125 14.61328125 C-5.71894939 11.38554623 -4.30205264 8.13326227 -2.89453125 4.875 C-2 3 -2 3 0 0 Z M-4 23 C-5.6315425 26.85142911 -7.25404943 30.70660244 -8.875 34.5625 C-9.33519531 35.64853516 -9.79539062 36.73457031 -10.26953125 37.85351562 C-10.71425781 38.91376953 -11.15898438 39.97402344 -11.6171875 41.06640625 C-12.02565918 42.03521729 -12.43413086 43.00402832 -12.85498047 44.00219727 C-14.10153708 47.26583663 -15.0402341 50.64081934 -16 54 C-6.43 54 3.14 54 13 54 C8.10235517 43.61105643 3.21009223 33.23629884 -2 23 C-2.66 23 -3.32 23 -4 23 Z " fill="#FFFFFF" transform="translate(539,313)"/>
<path d="M0 0 C3.61937693 4.39495771 2.97120187 9.38980848 3 14.90625 C3.02513672 16.03289062 3.05027344 17.15953125 3.07617188 18.3203125 C3.13504892 21.09930908 3.17132525 23.87673033 3.1875 26.65625 C1.8675 26.65625 0.5475 26.65625 -0.8125 26.65625 C-1.10382812 25.72683594 -1.39515625 24.79742187 -1.6953125 23.83984375 C-4.59187614 15.10460937 -7.28271952 8.26651607 -15.375 3.28125 C-22.01121234 0.14413144 -28.96642465 -0.47480247 -36 1.78125 C-41.19974473 3.95717461 -43.7440259 7.36666265 -46.125 12.46875 C-47.68847648 19.71759549 -47.27337488 26.04542887 -43.8125 32.65625 C-39.98328132 38.08213124 -35.42805649 41.60204931 -29.8125 45.03125 C-29.06991943 45.49966309 -28.32733887 45.96807617 -27.56225586 46.45068359 C-24.65945048 48.28001858 -21.74107284 50.0834897 -18.82080078 51.88476562 C4.40602783 66.24689919 4.40602783 66.24689919 7.1875 77.65625 C8.89483652 87.97729184 8.6647959 97.00928159 2.65625 105.8125 C-3.18239528 113.14186322 -11.58443121 118.07716068 -20.8125 119.65625 C-34.25354999 120.65550772 -49.49003917 121.13376775 -60.8125 112.65625 C-61.65551758 109.90063477 -61.65551758 109.90063477 -61.95703125 106.59765625 C-62.13588867 104.81198242 -62.13588867 104.81198242 -62.31835938 102.99023438 C-62.41955078 101.74564453 -62.52074219 100.50105469 -62.625 99.21875 C-62.74552734 97.97802734 -62.86605469 96.73730469 -62.99023438 95.45898438 C-63.42760981 90.83780054 -63.8125 86.30003957 -63.8125 81.65625 C-62.4925 81.65625 -61.1725 81.65625 -59.8125 81.65625 C-59.52117188 82.56246094 -59.22984375 83.46867187 -58.9296875 84.40234375 C-54.62799989 97.18566071 -49.21854588 107.34044482 -36.8125 113.65625 C-29.2571919 115.97035045 -22.08330303 115.02950589 -14.9453125 111.86328125 C-12.08352393 110.24369761 -10.49738782 108.46439637 -8.8125 105.65625 C-8.461875 105.09035156 -8.11125 104.52445312 -7.75 103.94140625 C-5.25025643 97.84828129 -5.82264494 89.62217601 -7.875 83.47265625 C-13.05851617 73.31690853 -21.74387016 67.78413317 -31.3125 62.09375 C-56.42467359 47.05166611 -56.42467359 47.05166611 -60.5 33.34375 C-61.49945744 24.74841602 -61.14381926 16.57502891 -56.1484375 9.19921875 C-42.85132369 -6.77321079 -18.22819614 -8.70902704 0 0 Z " fill="#FFFFFF" transform="translate(674.8125,317.34375)"/>
<path d="M0 0 C0 1.32 0 2.64 0 4 C-0.84304688 4.13277344 -1.68609375 4.26554687 -2.5546875 4.40234375 C-3.65039062 4.57894531 -4.74609375 4.75554687 -5.875 4.9375 C-7.51082031 5.19853516 -7.51082031 5.19853516 -9.1796875 5.46484375 C-11.93821546 5.85551159 -11.93821546 5.85551159 -14 7 C-15.81519669 10.61913778 -16.24886143 13.5767387 -16.24291992 17.59594727 C-16.2459462 18.70180679 -16.24897247 19.80766632 -16.25209045 20.94703674 C-16.24495529 22.14142868 -16.23782013 23.33582062 -16.23046875 24.56640625 C-16.23046371 25.81739609 -16.23045868 27.06838593 -16.23045349 28.35728455 C-16.22754897 31.73008654 -16.21536503 35.10257295 -16.19763947 38.47531128 C-16.18751038 40.56036384 -16.18077952 42.64539928 -16.17523193 44.73046875 C-16.13036857 61.32168323 -16.02708028 77.91312102 -15.625 94.5 C-15.60220474 95.59805466 -15.60220474 95.59805466 -15.57894897 96.71829224 C-15.5344946 98.73953659 -15.47473617 100.76042748 -15.4140625 102.78125 C-15.3826416 103.87501953 -15.3512207 104.96878906 -15.31884766 106.09570312 C-14.9900434 109.09069199 -14.35718502 111.31577623 -13 114 C-10.43106162 115.28446919 -8.23423663 115.32977144 -5.375 115.5625 C-3.87066406 115.68818359 -3.87066406 115.68818359 -2.3359375 115.81640625 C-1.56507813 115.87699219 -0.79421875 115.93757813 0 116 C0.5625 117.9375 0.5625 117.9375 1 120 C0 121 0 121 -1.90455627 121.12025452 C-2.73728561 121.11803391 -3.57001495 121.11581329 -4.42797852 121.11352539 C-5.36887833 121.11344986 -6.30977814 121.11337433 -7.27919006 121.11329651 C-8.30209641 121.10813522 -9.32500275 121.10297394 -10.37890625 121.09765625 C-11.42070541 121.0962413 -12.46250458 121.09482635 -13.53587341 121.09336853 C-16.87811094 121.0877508 -20.22028257 121.0751953 -23.5625 121.0625 C-25.82226466 121.05748728 -28.08203037 121.05292398 -30.34179688 121.04882812 C-35.89455391 121.03777561 -41.44727225 121.02102024 -47 121 C-47 119.68 -47 118.36 -47 117 C-45.75283203 116.83564453 -45.75283203 116.83564453 -44.48046875 116.66796875 C-43.39378906 116.50941406 -42.30710937 116.35085938 -41.1875 116.1875 C-40.10855469 116.03667969 -39.02960937 115.88585937 -37.91796875 115.73046875 C-34.90001216 114.97496958 -33.84503802 114.43348868 -32 112 C-30.31094122 108.62188245 -30.84359081 104.78787693 -30.83886719 101.0715332 C-30.83390228 100.14614243 -30.82893738 99.22075165 -30.82382202 98.26731873 C-30.80917607 95.19513208 -30.8023933 92.12299712 -30.796875 89.05078125 C-30.79112423 86.91806537 -30.78536649 84.78534951 -30.77960205 82.65263367 C-30.76908424 78.17442585 -30.76324712 73.69623602 -30.75976562 69.21801758 C-30.75428835 63.48585151 -30.73027992 57.75392387 -30.70179367 52.02183247 C-30.6831456 47.61312676 -30.67796046 43.20447813 -30.67642975 38.79573631 C-30.67340609 36.68307381 -30.66538728 34.57041225 -30.65224457 32.45778847 C-30.63514384 29.4968228 -30.63707461 26.5364348 -30.64355469 23.57543945 C-30.6343399 22.70607758 -30.62512512 21.8367157 -30.6156311 20.94100952 C-30.65238236 15.56612092 -31.3441908 11.72033221 -34 7 C-38.5018748 5.09536066 -43.16260348 4.59233427 -48 4 C-48 3.01 -48 2.02 -48 1 C-41.80697941 0.85700223 -35.61394548 0.71460151 -29.42089844 0.57275391 C-27.31412383 0.52441553 -25.20735296 0.47591405 -23.10058594 0.42724609 C-20.07227531 0.35731809 -17.04395173 0.28797679 -14.015625 0.21875 C-13.07382385 0.19687622 -12.13202271 0.17500244 -11.16168213 0.15246582 C-10.28107117 0.13244507 -9.40046021 0.11242432 -8.49316406 0.09179688 C-7.33400482 0.06514954 -7.33400482 0.06514954 -6.15142822 0.03796387 C-4.10123227 0.00178633 -2.05051512 0 0 0 Z " fill="#FFFFFF" transform="translate(981,313)"/>
</svg>
