<?xml version="1.0" encoding="UTF-8"?>
<svg version="1.1" xmlns="http://www.w3.org/2000/svg" width="636" height="115">
<path d="M0 0 C9.64706502 0.12694635 18.67694213 1.5195503 26.00756836 8.32128906 C29.60314087 13.62142929 31.9668142 18.84637965 31.00756836 25.32128906 C29.54278211 32.39169962 25.75764027 36.17662044 20.00756836 40.32128906 C17.71293689 41.78346964 15.42441964 43.06251235 13.00756836 44.32128906 C15.90874542 50.75433386 19.69415654 56.37086116 23.74584961 62.11425781 C25.71976986 64.91320172 27.66089867 67.72794133 29.57006836 70.57128906 C30.04573242 71.27769531 30.52139648 71.98410156 31.01147461 72.71191406 C32.00756836 74.32128906 32.00756836 74.32128906 32.00756836 75.32128906 C27.70883158 76.33011908 24.28466981 76.51837868 20.00756836 75.32128906 C15.29556456 71.38876726 12.35599327 65.52412879 9.25756836 60.32128906 C8.35263195 58.87352036 7.44381075 57.42817219 6.53100586 55.98535156 C4.31059563 52.45708509 2.14583937 48.89987911 0.00756836 45.32128906 C-1.38803209 48.11248997 -1.21051452 50.52334598 -1.30883789 53.64160156 C-1.35073242 54.8984375 -1.39262695 56.15527344 -1.43579102 57.45019531 C-1.47510742 58.76890625 -1.51442383 60.08761719 -1.55493164 61.44628906 C-1.59812676 62.78614657 -1.64174137 64.12599063 -1.68579102 65.46582031 C-1.79214145 68.75086721 -1.89416972 72.03599187 -1.99243164 75.32128906 C-5.62243164 75.32128906 -9.25243164 75.32128906 -12.99243164 75.32128906 C-13.01555629 65.69016195 -13.03334735 56.05904432 -13.04424381 46.42789555 C-13.04947238 41.95623357 -13.05656953 37.48459053 -13.06787109 33.01293945 C-13.07870093 28.70116934 -13.08470868 24.38941748 -13.08730888 20.07763481 C-13.08916296 18.42892608 -13.09278324 16.78021841 -13.0981617 15.13151741 C-13.10537342 12.83025034 -13.10642253 10.52905967 -13.10595703 8.2277832 C-13.10817764 6.91540176 -13.11039825 5.60302032 -13.11268616 4.25086975 C-12.84835425 -2.18865273 -5.08370732 0.01629248 0 0 Z M-0.99243164 9.32128906 C-2.2654872 10.37000159 -2.2654872 10.37000159 -2.10595703 12.72973633 C-2.10072021 13.77186279 -2.0954834 14.81398926 -2.09008789 15.88769531 C-2.08686523 17.01240234 -2.08364258 18.13710938 -2.08032227 19.29589844 C-2.07194336 20.47990234 -2.06356445 21.66390625 -2.05493164 22.88378906 C-2.05041992 24.07166016 -2.0459082 25.25953125 -2.04125977 26.48339844 C-2.02942839 29.42941132 -2.01294451 32.37532587 -1.99243164 35.32128906 C-0.25309866 35.36719023 1.48658967 35.3997354 3.22631836 35.42675781 C4.19504883 35.44633545 5.1637793 35.46591309 6.16186523 35.48608398 C10.42487826 35.23921252 13.60974157 33.86133115 17.00756836 31.32128906 C19.98232181 27.97469143 20.60362366 24.80346789 20.42553711 20.31738281 C19.64760118 16.60219349 17.76778945 14.89749542 15.00756836 12.32128906 C11.42414046 10.58698247 8.21032897 9.95962473 4.25756836 9.63378906 C3.29334961 9.54742187 2.32913086 9.46105469 1.33569336 9.37207031 C0.56741211 9.3553125 -0.20086914 9.33855469 -0.99243164 9.32128906 Z " fill="#FDFDFD" transform="translate(296.992431640625,20.6787109375)"/>
<path d="M0 0 C1.29997925 0.00303635 1.29997925 0.00303635 2.6262207 0.00613403 C3.51027588 0.00517731 4.39433105 0.00422058 5.30517578 0.00323486 C7.178142 0.00255302 9.05111056 0.0044076 10.92407227 0.00857544 C13.80140458 0.01392364 16.67858078 0.0086306 19.5559082 0.00222778 C21.37101272 0.00288856 23.18611713 0.00416972 25.0012207 0.00613403 C25.86787354 0.0041098 26.73452637 0.00208557 27.62744141 0 C33.69877061 0.02399644 33.69877061 0.02399644 34.8137207 1.13894653 C34.9116264 2.63632778 34.94346935 4.13837545 34.9387207 5.63894653 C34.94258789 6.86097778 34.94258789 6.86097778 34.9465332 8.10769653 C34.8137207 10.13894653 34.8137207 10.13894653 33.8137207 11.13894653 C31.52220653 11.22685628 29.22799546 11.24588692 26.93481445 11.23660278 C25.90482079 11.23448036 25.90482079 11.23448036 24.85401917 11.23231506 C22.65304269 11.22670132 20.45216661 11.2141466 18.2512207 11.20144653 C16.76228988 11.1964333 15.27335746 11.19187009 13.78442383 11.18777466 C10.12745265 11.17757675 6.47069953 11.15800433 2.8137207 11.13894653 C3.1437207 16.74894653 3.4737207 22.35894653 3.8137207 28.13894653 C14.0437207 28.46894653 24.2737207 28.79894653 34.8137207 29.13894653 C34.8137207 32.43894653 34.8137207 35.73894653 34.8137207 39.13894653 C19.4687207 39.63394653 19.4687207 39.63394653 3.8137207 40.13894653 C3.8137207 47.72894653 3.8137207 55.31894653 3.8137207 63.13894653 C6.65907795 64.56162516 9.17590622 64.35866522 12.3527832 64.45535278 C13.65473633 64.49724731 14.95668945 64.53914185 16.2980957 64.58230591 C17.67830115 64.62211953 19.05850953 64.66183176 20.4387207 64.70144653 C21.82675485 64.7446406 23.21477598 64.78825518 24.6027832 64.83230591 C28.00632327 64.93866654 31.40993848 65.04069368 34.8137207 65.13894653 C34.8137207 68.43894653 34.8137207 71.73894653 34.8137207 75.13894653 C28.99300448 75.16359291 23.17231836 75.18178083 17.3515625 75.19387817 C15.36978629 75.19891921 13.38801382 75.20575191 11.40625 75.21438599 C8.56419962 75.22646168 5.72219823 75.23217698 2.88012695 75.23660278 C1.54263145 75.24434471 1.54263145 75.24434471 0.17811584 75.25224304 C-1.94368531 75.2524383 -4.06538709 75.20104683 -6.1862793 75.13894653 C-8.08798634 73.23723949 -7.31412136 69.8604694 -7.31567383 67.34011841 C-7.31742615 66.62956802 -7.31917847 65.91901764 -7.32098389 65.18693542 C-7.32540207 62.82716462 -7.32246455 60.46746816 -7.3190918 58.10769653 C-7.31976485 56.4748432 -7.32073488 54.84198996 -7.32199097 53.20913696 C-7.32346789 49.78257292 -7.32131355 46.3560349 -7.31665039 42.92947388 C-7.3109531 38.52740152 -7.31423213 34.12539013 -7.32022285 29.72332001 C-7.32382861 26.35026588 -7.32268982 22.97722631 -7.32009506 19.60417175 C-7.31942583 17.98058566 -7.32025408 16.35699827 -7.32257462 14.7334137 C-7.32510138 12.46816483 -7.32126024 10.20301603 -7.31567383 7.93777466 C-7.31487823 6.64617432 -7.31408264 5.35457397 -7.31326294 4.02383423 C-7.08373334 -1.19075161 -4.61774629 0.01825127 0 0 Z " fill="#FEFEFE" transform="translate(438.186279296875,20.861053466796875)"/>
<path d="M0 0 C1 1 1 1 1.09765625 3.50390625 C1.08605469 4.51324219 1.07445312 5.52257812 1.0625 6.5625 C1.05347656 7.57441406 1.04445313 8.58632813 1.03515625 9.62890625 C1.02355469 10.41136719 1.01195312 11.19382812 1 12 C-2.49119234 11.56360096 -5.16078207 10.92556386 -8.375 9.4375 C-16.22362279 6.38861192 -26.81952537 6.77818673 -34.625 9.6875 C-42.74925556 13.58605216 -46.62414343 18.65432273 -50.25 26.8125 C-52.28864973 35.47676137 -51.13729901 43.42928316 -46.78125 51.1640625 C-42.3305924 57.76587127 -36.34907972 61.25562364 -28.75 63.375 C-19.7798205 65.00309541 -11.1404673 63.61779266 -2.92578125 59.83984375 C-1 59 -1 59 1 59 C1 62.63 1 66.26 1 70 C-10.71721372 76.50956318 -21.8412448 77.2446617 -34.75390625 74.03515625 C-44.35802203 70.97247192 -52.65804029 64.66458531 -57.79296875 55.9609375 C-62.98837089 45.81694567 -64.71180739 36.2187379 -62.3515625 24.88671875 C-58.97240306 14.67703616 -51.83423811 5.63376637 -42.2890625 0.55859375 C-28.22175325 -6.06020725 -14.38948952 -5.31599835 0 0 Z " fill="#FDFDFD" transform="translate(154,23)"/>
<path d="M0 0 C4.7008547 3.1025641 4.7008547 3.1025641 6 7 C2.535 9.97 2.535 9.97 -1 13 C-5 11 -5 11 -6.84765625 9.40625 C-11.26340943 6.5211844 -16.95337192 7.32371356 -22 8 C-25.51369948 9.83959345 -25.51369948 9.83959345 -27 13 C-27.07388723 16.62047447 -26.61579195 18.29512161 -24.22973633 21.02636719 C-21.97655979 23.02074791 -19.96815303 24.22279184 -17.26171875 25.515625 C-15.90723633 26.18658203 -15.90723633 26.18658203 -14.52539062 26.87109375 C-12.64906882 27.78278211 -10.76889026 28.68657968 -8.88476562 29.58203125 C-1.6168287 33.20825138 3.53554818 37.40468239 7.4140625 44.63671875 C9.13336178 51.57122583 9.02416668 59.02469695 5.3203125 65.25390625 C0.84255098 71.17567962 -4.63760735 74.76706343 -12 76 C-19.82931078 76.37828295 -26.55724188 74.47048523 -33 70 C-36.68084214 66.56454734 -40.21239205 62.77626499 -42 58 C-41.67 56.68 -41.34 55.36 -41 54 C-38.03 53.34 -35.06 52.68 -32 52 C-31.46375 53.0725 -30.9275 54.145 -30.375 55.25 C-28.16581434 59.05257044 -26.01789861 61.0289554 -22 63 C-17.55164855 64.1770273 -13.50690076 64.49386221 -9.125 62.9375 C-5.38297559 60.61744486 -4.2902957 59.19346102 -3 55 C-3.09491654 49.58975703 -4.33133779 46.89339814 -8 43 C-11.15011342 41.08168739 -11.15011342 41.08168739 -14.6875 39.5 C-15.94064577 38.89826204 -17.19325034 38.2953957 -18.4453125 37.69140625 C-19.61835937 37.13324219 -20.79140625 36.57507812 -22 36 C-29.29534619 32.41468029 -34.79031377 28.83499827 -38 21 C-38.65728611 15.51242526 -38.75608529 10.59941118 -36.375 5.5625 C-25.77610806 -5.87314657 -13.76424113 -6.58974289 0 0 Z " fill="#FDFDFD" transform="translate(52,23)"/>
<path d="M0 0 C3.46056971 3.70775326 5.05338719 7.37235998 6.81640625 12.0234375 C8.16448584 15.41365747 9.68821184 18.70486526 11.25 22 C13.91236846 27.63329194 16.48497712 33.29940305 19 39 C21.50573274 44.67341418 24.05412314 50.32213664 26.6875 55.9375 C26.97246338 56.54625977 27.25742676 57.15501953 27.55102539 57.78222656 C28.87771718 60.61383974 30.2095541 63.44292117 31.546875 66.26953125 C32.23523438 67.74486328 32.23523438 67.74486328 32.9375 69.25 C33.33839844 70.10078125 33.73929687 70.9515625 34.15234375 71.828125 C35 74 35 74 35 77 C31.7 77 28.4 77 25 77 C22 71 19 65 16 59 C5.77 59 -4.46 59 -15 59 C-17.59014819 64.54857399 -17.59014819 64.54857399 -20.17553711 70.09936523 C-20.4978833 70.78716064 -20.82022949 71.47495605 -21.15234375 72.18359375 C-21.48226318 72.89056396 -21.81218262 73.59753418 -22.15209961 74.32592773 C-23 76 -23 76 -24 77 C-25.68608966 77.07205511 -27.37500659 77.08386068 -29.0625 77.0625 C-30.44115234 77.04896484 -30.44115234 77.04896484 -31.84765625 77.03515625 C-32.55792969 77.02355469 -33.26820313 77.01195313 -34 77 C-31.59896153 68.92377971 -28.10358898 61.41025322 -24.56286621 53.78823853 C-22.75610827 49.8984798 -20.96417069 46.00190747 -19.171875 42.10546875 C-18.81474426 41.32983078 -18.45761353 40.55419281 -18.08966064 39.75505066 C-14.44304769 31.81921823 -10.92488706 23.82945753 -7.45117188 15.81640625 C-5.11903664 10.45586426 -2.66581688 5.20323432 0 0 Z M0 24 C-6.92492437 35.95591856 -6.92492437 35.95591856 -10 49 C-3.4 49 3.2 49 10 49 C11.08015385 44.67938459 10.94047114 44.0887465 9.19921875 40.26953125 C8.79896484 39.38458984 8.39871094 38.49964844 7.98632812 37.58789062 C7.55771484 36.67201172 7.12910156 35.75613281 6.6875 34.8125 C6.27048828 33.88501953 5.85347656 32.95753906 5.42382812 32.00195312 C3.5983553 27.21001634 3.5983553 27.21001634 0 24 Z " fill="#FDFDFD" transform="translate(216,19)"/>
<path d="M0 0 C15.18 0 30.36 0 46 0 C46 3.3 46 6.6 46 10 C41.96542719 14.03457281 34.69463609 11.64408524 29 12 C28.67 32.79 28.34 53.58 28 75 C24.7 75 21.4 75 18 75 C17.67 54.21 17.34 33.42 17 12 C11.72 11.67 6.44 11.34 1 11 C0.67 10.67 0.34 10.34 0 10 C0 6.7 0 3.4 0 0 Z " fill="#FEFEFE" transform="translate(576,21)"/>
<path d="M0 0 C6.39037797 -0.024644 12.78072852 -0.04283317 19.17114258 -0.05493164 C21.34692873 -0.05997308 23.52271147 -0.06680607 25.69848633 -0.07543945 C28.81853067 -0.08751338 31.93853038 -0.09323005 35.05859375 -0.09765625 C36.52733192 -0.10539818 36.52733192 -0.10539818 38.02574158 -0.11329651 C39.37702904 -0.11340981 39.37702904 -0.11340981 40.75561523 -0.11352539 C41.95141457 -0.11685631 41.95141457 -0.11685631 43.17137146 -0.12025452 C45 0 45 0 46 1 C46.0979057 2.49738124 46.12974864 3.99942892 46.125 5.5 C46.12886719 6.72203125 46.12886719 6.72203125 46.1328125 7.96875 C46 10 46 10 45 11 C39.72 11 34.44 11 29 11 C28.67 32.12 28.34 53.24 28 75 C24.7 75 21.4 75 18 75 C18 53.88 18 32.76 18 11 C12.06 11 6.12 11 0 11 C0 7.37 0 3.74 0 0 Z " fill="#FEFEFE" transform="translate(502,21)"/>
<path d="M0 0 C3.3 0 6.6 0 10 0 C10.33 21.45 10.66 42.9 11 65 C18.59 65 26.18 65 34 65 C34 68.3 34 71.6 34 75 C22.78 75 11.56 75 0 75 C0 50.25 0 25.5 0 0 Z " fill="#FEFEFE" transform="translate(366,21)"/>
<path d="" fill="#FFFFFF" transform="translate(0,0)"/>
<path d="" fill="#FFFFFF" transform="translate(0,0)"/>
</svg>
