<?xml version="1.0" encoding="UTF-8"?>
<svg version="1.1" xmlns="http://www.w3.org/2000/svg" width="862" height="184">
<path d="M0 0 C6.27 0 12.54 0 19 0 C21.05698176 4.89419798 22.99327454 9.66752073 24.3125 14.8125 C30.91494227 39.97128001 40.56014737 64.93153259 49.9453125 89.18212891 C51.52714424 93.35400415 52.57896112 97.46404139 53.49072266 101.8293457 C54.24139978 105.02890002 55.40605784 108.01514459 56.625 111.0625 C57.07101563 112.18785156 57.51703125 113.31320313 57.9765625 114.47265625 C58.31429687 115.30667969 58.65203125 116.14070313 59 117 C61.54528759 111.08165801 64.08107572 105.15930159 66.61328125 99.23535156 C68.03776999 95.9118789 69.47184859 92.59264235 70.90625 89.2734375 C71.87528444 87.01574706 72.8440392 84.75793656 73.8125 82.5 C74.49566284 80.92822998 74.49566284 80.92822998 75.19262695 79.32470703 C77.46027684 74.01669565 79.43696544 68.75654201 81.07421875 63.21875 C82.36736703 58.84613325 83.85309371 54.94570711 86.00439453 50.93603516 C87.94982855 47.15298175 89.39577736 43.14782603 90.9375 39.1875 C93.03621596 33.86121696 95.12773613 28.5589509 97.5625 23.375 C101.12991263 15.76370525 104.00382379 7.84877283 107 0 C107.66 0 108.32 0 109 0 C110.77223236 4.27025384 112.54269323 8.54124045 114.3125 12.8125 C114.58088684 13.45993164 114.84927368 14.10736328 115.12579346 14.77441406 C118.120184 21.99990713 121.10091414 29.23031278 124.03515625 36.48046875 C124.51364014 37.66213623 124.99212402 38.84380371 125.48510742 40.0612793 C126.38256855 42.28167979 127.27744977 44.50312561 128.16918945 46.72583008 C130.81144558 53.26161412 133.65583035 59.66126691 136.69677734 66.02197266 C137.97456517 68.94187823 138.90553582 71.80491324 139.75 74.875 C143.01287369 86.18445201 148.26827958 96.93681838 153.203125 107.59960938 C153.56921875 108.39689453 153.9353125 109.19417969 154.3125 110.015625 C154.63863281 110.71461914 154.96476563 111.41361328 155.30078125 112.13378906 C156 114 156 114 156 117 C156.66 117 157.32 117 158 117 C158.10570312 116.34128906 158.21140625 115.68257813 158.3203125 115.00390625 C159.34568697 110.47222251 161.03054323 106.20140796 162.65234375 101.85351562 C164.1035565 97.86085744 165.27824671 93.92416821 166.22265625 89.78125 C168.31734951 81.14541336 171.47615273 72.86142517 174.49481201 64.51550293 C175.9415418 60.51414922 177.37453097 56.50792157 178.8081665 52.50186157 C179.52515028 50.49853888 180.24271696 48.49542471 180.96087646 46.49252319 C183.97233523 38.09210604 186.94785541 29.68015406 189.875 21.25 C190.27275635 20.11763916 190.6705127 18.98527832 191.08032227 17.81860352 C191.44311279 16.76987061 191.80590332 15.7211377 192.1796875 14.640625 C192.63964111 13.31853027 192.63964111 13.31853027 193.10888672 11.96972656 C194.28858458 8.03826223 195.10957779 4.00689995 196 0 C202.6 0 209.2 0 216 0 C214.06727358 6.67561334 211.89787853 13.15214097 209.375 19.625 C208.66617087 21.46725723 207.95785823 23.30971325 207.25 25.15234375 C206.88261719 26.10608887 206.51523438 27.05983398 206.13671875 28.04248047 C199.24341826 45.93610338 199.24341826 45.93610338 193 64.0625 C189.80734333 73.91137566 185.95495984 83.48789969 182.13916016 93.10839844 C179.01382093 101.04164272 176.01670261 109.02497644 173 117 C172.70963867 117.76521973 172.41927734 118.53043945 172.12011719 119.31884766 C169.58257549 126.00806513 167.05436606 132.68617542 164.85546875 139.49609375 C162.7292274 145.71947598 160.3312825 151.8511481 158 158 C154.87193529 155.41594654 153.91032948 152.58200343 152.5625 148.8125 C151.24627988 145.15054106 149.85948506 141.63551801 148.0859375 138.17578125 C145.79133005 133.68408312 143.91338512 129.06393923 142.0625 124.375 C141.53873779 123.05786011 141.53873779 123.05786011 141.00439453 121.71411133 C138.60530057 115.64088434 136.37127818 109.52923305 134.2109375 103.3671875 C131.36812017 95.46232126 128.2416584 87.67260356 124.734375 80.0390625 C121.7266659 73.46505366 118.9171693 66.81228497 116.12353516 60.14526367 C115.24060502 58.04009961 114.35282079 55.93702379 113.46484375 53.83398438 C112.89814377 52.48449831 112.33172694 51.1348933 111.765625 49.78515625 C111.25805664 48.57738525 110.75048828 47.36961426 110.22753906 46.12524414 C109.28671945 43.7299713 108.52103523 41.50991225 108 39 C101.95652985 53.3152589 95.95259947 67.64670266 90 82 C89.57976562 83.01223633 89.15953125 84.02447266 88.7265625 85.06738281 C87.50149583 88.02257082 86.28119735 90.97968042 85.0625 93.9375 C84.69713135 94.81833252 84.3317627 95.69916504 83.95532227 96.60668945 C82.36846824 100.47170391 80.86020101 104.32348849 79.578125 108.30078125 C77.59409876 114.40573525 75.11889934 120.31247637 72.6875 126.25 C72.22666016 127.38824219 71.76582031 128.52648437 71.29101562 129.69921875 C68.47300935 136.60509782 65.48511689 143.40308228 62.30786133 150.15136719 C61.11904606 152.74070759 60.03179119 155.34482078 59 158 C57 157 57 157 55.90600586 154.31396484 C55.51292236 153.12496582 55.11983887 151.9359668 54.71484375 150.7109375 C54.49821579 150.06505676 54.28158783 149.41917603 54.05839539 148.75372314 C53.59075901 147.35917748 53.12611761 145.96362474 52.66412354 144.56719971 C51.43743878 140.86633146 50.18294818 137.17498203 48.92578125 133.484375 C48.67471619 132.74704132 48.42365112 132.00970764 48.16497803 131.25003052 C46.13248208 125.31505284 43.94705708 119.45318436 41.625 113.625 C41.27671143 112.7498877 40.92842285 111.87477539 40.56958008 110.97314453 C39.81635837 109.08315776 39.06267418 107.19335525 38.30859375 105.30371094 C35.83515166 99.05919258 33.41339937 92.79481465 31.00213623 86.52606201 C30.42589937 85.03079733 29.84755349 83.53634339 29.26690674 82.04278564 C26.34017927 74.51372013 23.58939098 67.04884277 21.58691406 59.20898438 C20.88419136 56.56412787 19.93117494 54.12081628 18.8125 51.625 C15.2980117 43.47012446 12.22130274 35.154053 9.08349609 26.84912109 C7.9702913 23.92187911 6.84080401 21.00136382 5.70703125 18.08203125 C5.33747314 17.12611084 4.96791504 16.17019043 4.5871582 15.18530273 C3.87465881 13.34349259 3.15848049 11.50310046 2.43823242 9.66430664 C2.11830322 8.83406982 1.79837402 8.00383301 1.46875 7.1484375 C1.18451172 6.41802246 0.90027344 5.68760742 0.60742188 4.93505859 C0 3 0 3 0 0 Z " fill="#000000" transform="translate(3,9)"/>
<path d="M0 0 C4.95 0 9.9 0 15 0 C15 51.81 15 103.62 15 157 C10.05 157 5.1 157 0 157 C-0.495 148.09 -0.495 148.09 -1 139 C-2.051875 139.886875 -3.10375 140.77375 -4.1875 141.6875 C-4.77917969 142.18636719 -5.37085938 142.68523437 -5.98046875 143.19921875 C-8.11455708 145.0485242 -8.11455708 145.0485242 -10.328125 147.48046875 C-19.21173142 155.85755376 -32.89521598 159.97884312 -44.875 160.375 C-60.96920734 159.84973214 -72.40146222 154.11886063 -84.5 143.9375 C-85.0878125 143.4432251 -85.675625 142.9489502 -86.28125 142.43969727 C-97.05571826 133.02294918 -102.19396374 117.35701381 -103.28515625 103.3359375 C-103.63894184 88.23083079 -99.78704258 72.24873862 -89.75 60.5625 C-77.88207159 48.47735493 -63.02265636 40.78238611 -46.125 40.625 C-36.30200479 40.59641641 -28.67398796 41.06479996 -20 46 C-19.0203125 46.53109375 -18.040625 47.0621875 -17.03125 47.609375 C-10.86318993 51.22399085 -6.36591941 55.3709844 -2 61 C-1.67 61.33 -1.34 61.66 -1 62 C-0.67 41.54 -0.34 21.08 0 0 Z M-66 59 C-66 59.66 -66 60.32 -66 61 C-66.74636719 61.26296875 -67.49273437 61.5259375 -68.26171875 61.796875 C-78.19340001 66.16058089 -83.91938296 77.75870895 -87.98046875 87.3046875 C-91.19975663 98.4101504 -88.74789043 111.63117023 -83.86328125 121.7734375 C-76.78854867 134.02444192 -68.09966989 141.54990236 -54.44140625 145.30078125 C-41.59247484 147.91140409 -28.4934125 145.55985276 -16.98046875 139.37890625 C-6.96192538 132.22280384 -0.67526148 119.34171234 1.4609375 107.4296875 C3.4129656 92.20386834 -2.12739601 79.1810326 -11 67 C-22.13238625 56.35244129 -32.24244451 54.73516428 -47.2265625 54.83984375 C-53.81648555 55.11954028 -60.15393006 55.80146059 -66 59 Z " fill="#000000" transform="translate(551,9)"/>
<path d="M0 0 C1.01006104 0.00684814 2.02012207 0.01369629 3.06079102 0.02075195 C14.04928119 0.25722547 22.71001377 3.01647652 31.625 9.4375 C32.65947266 10.15099609 32.65947266 10.15099609 33.71484375 10.87890625 C38.28338082 14.13728558 40.83999384 16.89549261 44.625 21.4375 C44.955 15.4975 45.285 9.5575 45.625 3.4375 C50.245 3.4375 54.865 3.4375 59.625 3.4375 C59.625 40.7275 59.625 78.0175 59.625 116.4375 C55.005 116.4375 50.385 116.4375 45.625 116.4375 C45.13 107.5275 45.13 107.5275 44.625 98.4375 C42.645 100.149375 40.665 101.86125 38.625 103.625 C30.64007665 110.40461455 23.86595917 114.80739813 13.625 117.4375 C12.62146484 117.746875 12.62146484 117.746875 11.59765625 118.0625 C-0.98119034 121.76670022 -14.58707599 118.48946743 -26.375 113.4375 C-26.375 112.7775 -26.375 112.1175 -26.375 111.4375 C-27.035 111.23125 -27.695 111.025 -28.375 110.8125 C-32.51202244 108.91636471 -35.81336709 106.24044187 -39.375 103.4375 C-40.40625 102.695 -41.4375 101.9525 -42.5 101.1875 C-46.42456106 97.43357203 -48.78407715 93.17210306 -51.375 88.4375 C-51.931875 87.509375 -52.48875 86.58125 -53.0625 85.625 C-59.41499996 70.1975001 -60.10853134 50.69876294 -54.046875 35.05859375 C-47.07178062 19.95132157 -34.7964651 8.61528632 -19.17333984 2.58813477 C-12.73940646 0.43902495 -6.75485813 -0.07045117 0 0 Z M-28.34765625 24.29296875 C-40.07631467 37.20738164 -44.2602562 49.06809748 -43.54541016 66.23144531 C-42.60324811 78.42825948 -34.86653207 88.82135567 -26.20703125 97.01171875 C-22.8840879 99.59780472 -19.33155762 101.06792236 -15.375 102.4375 C-14.529375 102.7365625 -13.68375 103.035625 -12.8125 103.34375 C0.9024859 107.64961767 13.78666513 105.44552241 26.625 99.4375 C29.59614079 97.52796788 29.59614079 97.52796788 31.625 95.4375 C31.625 94.7775 31.625 94.1175 31.625 93.4375 C32.285 93.4375 32.945 93.4375 33.625 93.4375 C44.63674087 80.90032317 47.23882544 68.6527221 46.625 52.4375 C45.67746896 40.50225325 37.42690478 29.10850989 28.625 21.4375 C22.39621452 17.40275901 16.13487813 14.50082106 8.625 14.4375 C7.47902344 14.40011719 6.33304687 14.36273438 5.15234375 14.32421875 C-7.80030598 14.07787206 -18.52413465 15.05302269 -28.34765625 24.29296875 Z " fill="#000000" transform="translate(281.375,49.5625)"/>
<path d="M0 0 C10.99754209 8.1360457 10.99754209 8.1360457 15.01171875 13.48828125 C15.34171875 7.54828125 15.67171875 1.60828125 16.01171875 -4.51171875 C20.63171875 -4.51171875 25.25171875 -4.51171875 30.01171875 -4.51171875 C30.03483864 10.07399377 30.05263202 24.65970196 30.06353092 39.24542904 C30.06869366 46.01738546 30.07573593 52.7893303 30.0871582 59.5612793 C30.09816589 66.09052551 30.103995 72.61976419 30.10659599 79.14901924 C30.10845074 81.64621737 30.11207229 84.1434148 30.11744881 86.64060783 C30.12465559 90.12492194 30.12570985 93.60918556 30.12524414 97.09350586 C30.12883942 98.1371933 30.13243469 99.18088074 30.13613892 100.25619507 C30.13476425 101.19995499 30.13338959 102.1437149 30.13197327 103.11607361 C30.13289506 103.94107833 30.13381685 104.76608305 30.13476658 105.61608791 C30.01171875 107.48828125 30.01171875 107.48828125 29.01171875 108.48828125 C27.01372303 108.58701941 25.01214717 108.61799924 23.01171875 108.61328125 C21.91859375 108.61585938 20.82546875 108.6184375 19.69921875 108.62109375 C17.01171875 108.48828125 17.01171875 108.48828125 16.01171875 107.48828125 C15.77470636 104.62950216 15.58952693 101.78944828 15.44921875 98.92578125 C15.40603516 98.11947266 15.36285156 97.31316406 15.31835938 96.48242188 C15.21196613 94.4845932 15.11130987 92.48646055 15.01171875 90.48828125 C12.42539174 92.51794848 10.02607928 94.47312291 7.76171875 96.86328125 C-2.13482257 106.30997978 -15.4449297 111.25497194 -29.05078125 111.86328125 C-41.56919398 111.5652238 -52.78120056 107.62897887 -62.98828125 100.48828125 C-63.94605469 99.82957031 -64.90382813 99.17085938 -65.890625 98.4921875 C-76.98252679 90.19988781 -84.40956449 77.60500473 -86.63671875 63.90234375 C-88.6475511 44.37492733 -86.1453515 27.95027657 -73.98828125 12.05078125 C-70.94344456 8.40385821 -68.14995238 5.8547217 -63.98828125 3.48828125 C-63.2096875 2.94558594 -62.43109375 2.40289062 -61.62890625 1.84375 C-43.81970337 -10.3807751 -18.38929258 -12.45228827 0 0 Z M-58.37109375 16.8359375 C-68.14938004 28.08925342 -73.45815446 39.99696489 -73.25390625 54.9921875 C-72.22383484 68.54974507 -65.20218301 79.6975868 -55.67578125 89.05078125 C-48.72234186 94.81289711 -39.84987773 96.9256402 -30.98828125 97.48828125 C-29.83199219 97.61783203 -29.83199219 97.61783203 -28.65234375 97.75 C-19.13489683 98.39307074 -8.55361334 94.98723418 -0.484375 89.9140625 C0.00933594 89.44355469 0.50304687 88.97304687 1.01171875 88.48828125 C1.01171875 87.82828125 1.01171875 87.16828125 1.01171875 86.48828125 C1.61113281 86.22917969 2.21054687 85.97007812 2.828125 85.703125 C10.44398567 81.46603615 14.47518936 70.72921567 16.80078125 62.796875 C19.17672725 51.91504232 18.05196813 41.40723356 13.01171875 31.48828125 C12.58890625 30.65554687 12.16609375 29.8228125 11.73046875 28.96484375 C6.23734449 19.04670273 -1.20781928 11.40040292 -11.98828125 7.48828125 C-14.8997095 6.83571975 -17.06164034 6.55352484 -19.98828125 6.48828125 C-21.2103125 6.44960938 -22.43234375 6.4109375 -23.69140625 6.37109375 C-37.0868744 6.07649537 -48.37031554 6.98271175 -58.37109375 16.8359375 Z " fill="#000000" transform="translate(684.98828125,57.51171875)"/>
<path d="M0 0 C4.95 0 9.9 0 15 0 C15.33 20.46 15.66 40.92 16 62 C17.32 60.02 18.64 58.04 20 56 C33.8290155 43.79095489 46.58090537 39.97366158 64.72021484 40.81347656 C74.54571223 41.61736176 82.22495189 47.98927355 88.8203125 54.91015625 C99.11564662 67.50771332 99.29769202 83.93917725 99.1953125 99.3828125 C99.19157544 101.05003692 99.18873175 102.71726355 99.18673706 104.38449097 C99.17915512 108.74098941 99.15955433 113.09735133 99.1373291 117.45379639 C99.11675251 121.91188715 99.10771025 126.37000029 99.09765625 130.828125 C99.07630249 139.55215251 99.04116568 148.27604346 99 157 C94.05 157 89.1 157 84 157 C83.98541748 154.78563232 83.97083496 152.57126465 83.95581055 150.28979492 C83.90526046 142.93758509 83.83863056 135.58558252 83.76428509 128.23357677 C83.71973699 123.78016693 83.68044749 119.3268453 83.65356445 114.87329102 C83.62737505 110.56777542 83.58686474 106.26260215 83.53681374 101.95730019 C83.52024997 100.32248537 83.50867087 98.68761148 83.50238609 97.05272484 C83.44783804 84.15616126 82.24598368 72.08573572 75 61 C68.39825077 54.99840979 59.61921581 54.56881935 51.05078125 54.75390625 C41.24716927 55.54472258 32.69093174 58.78888573 26.02734375 66.19140625 C18.84980072 75.6852689 15.94227011 86.75788367 15.81054688 98.5402832 C15.79382935 99.81793045 15.77711182 101.0955777 15.7598877 102.41194153 C15.75320572 103.08659769 15.74652374 103.76125385 15.73963928 104.45635414 C15.71847356 106.57849809 15.69146923 108.70049826 15.66296387 110.82255554 C15.59342054 116.08599598 15.53356552 121.34953752 15.47393799 126.61309814 C15.42308043 131.07516686 15.36832278 135.5371527 15.30812073 139.99910545 C15.2814996 142.0936426 15.26072418 144.18818747 15.2401123 146.28279114 C15.22339478 147.54467758 15.20667725 148.80656403 15.18945312 150.10668945 C15.17066101 151.78164238 15.17066101 151.78164238 15.15148926 153.49043274 C15 156 15 156 14 157 C11.64686445 157.07271741 9.29166332 157.08370868 6.9375 157.0625 C5.64714844 157.05347656 4.35679687 157.04445312 3.02734375 157.03515625 C1.52880859 157.01775391 1.52880859 157.01775391 0 157 C-1.30681057 154.38637886 -1.12589182 152.47346178 -1.12698364 149.54548645 C-1.12980347 148.38643295 -1.13262329 147.22737946 -1.13552856 146.03320312 C-1.13350433 144.75485596 -1.1314801 143.47650879 -1.12939453 142.15942383 C-1.13074917 140.80417331 -1.13252945 139.44892316 -1.13470459 138.09367371 C-1.13927713 134.40281092 -1.13748861 130.71197598 -1.1343255 127.02111268 C-1.13179428 123.14970973 -1.1341422 119.27830917 -1.13571167 115.40690613 C-1.13753396 108.89081394 -1.13512845 102.37473305 -1.13037109 95.85864258 C-1.124958 88.35852637 -1.12666924 80.85843748 -1.1321975 73.35832196 C-1.13676254 66.90374579 -1.13736181 60.44917775 -1.13475883 53.99460047 C-1.13321077 50.14714563 -1.13296087 46.29970352 -1.13629532 42.45224953 C-1.13922243 38.82023052 -1.1371112 35.18824591 -1.13140106 31.55623055 C-1.12948433 29.61371023 -1.13238798 27.67118694 -1.13552856 25.72866821 C-1.11518667 17.1029404 -0.64160225 8.59838162 0 0 Z " fill="#000000" transform="translate(752,9)"/>
<path d="M0 0 C-0.87401661 1.82312056 -1.77505917 3.63330341 -2.6875 5.4375 C-3.18636719 6.44683594 -3.68523437 7.45617187 -4.19921875 8.49609375 C-6 11 -6 11 -8.4296875 11.8515625 C-10.78843474 11.98778195 -13.07757082 12.03425289 -15.4375 11.9375 C-21.87969625 11.88408212 -26.28289278 13.53116158 -31 18 C-34.46205433 22.58192989 -36.17182011 26.86872367 -37.6875 32.3125 C-37.89955078 33.02083984 -38.11160156 33.72917969 -38.33007812 34.45898438 C-41.18304794 44.38587935 -41.18840196 54.4056415 -41.31640625 64.66015625 C-41.3370205 66.05977428 -41.35801799 67.45938671 -41.37937927 68.85899353 C-41.43413897 72.51341165 -41.48374822 76.16788157 -41.53222656 79.8223877 C-41.58278189 83.56327839 -41.6382889 87.30409541 -41.69335938 91.04492188 C-41.80037558 98.36322015 -41.90148344 105.68158147 -42 113 C-46.95 113 -51.9 113 -57 113 C-57.495 57.065 -57.495 57.065 -58 0 C-52.72 0 -47.44 0 -42 0 C-41.505 6.93 -41.505 6.93 -41 14 C-39.989375 12.80375 -38.97875 11.6075 -37.9375 10.375 C-27.87336448 -1.06611986 -14.95390396 -8.60361598 0 0 Z " fill="#000000" transform="translate(435,53)"/>
<path d="M0 0 C10.60852366 3.17281203 20.86772778 4.95012829 31.94311523 5.36279297 C28.30026397 7.58018069 24.53799364 8.01514212 20.38061523 8.48779297 C19.66099609 8.56980957 18.94137695 8.65182617 18.19995117 8.73632812 C16.11557865 8.96155227 14.03046093 9.16725215 11.94311523 9.36279297 C10.5605957 9.49427734 10.5605957 9.49427734 9.15014648 9.62841797 C-1.06287075 10.08305149 -11.33054642 7.07956456 -21.23461914 4.87890625 C-31.58653003 2.58042266 -41.55102238 1.02815688 -52.05688477 3.36279297 C-38.25505091 -12.66514312 -17.29988316 -5.2217183 0 0 Z " fill="#010101" transform="translate(675.056884765625,27.63720703125)"/>
</svg>
